%TF.GenerationSoftware,KiCad,Pcbnew,8.0.8*%
%TF.CreationDate,2026-01-05T18:13:38-07:00*%
%TF.ProjectId,Traeger rev 2.3.0.kicad_pro,54726165-6765-4722-9072-657620322e33,rev?*%
%TF.SameCoordinates,Original*%
%TF.FileFunction,Legend,Bot*%
%TF.FilePolarity,Positive*%
%FSLAX46Y46*%
G04 Gerber Fmt 4.6, Leading zero omitted, Abs format (unit mm)*
G04 Created by KiCad (PCBNEW 8.0.8) date 2026-01-05 18:13:38*
%MOMM*%
%LPD*%
G01*
G04 APERTURE LIST*
%ADD10C,0.100000*%
G04 APERTURE END LIST*
D10*
X157881396Y-59028646D02*
X157881396Y-59885789D01*
X159381396Y-59457217D02*
X157881396Y-59457217D01*
X159381396Y-60385788D02*
X158381396Y-60385788D01*
X158667110Y-60385788D02*
X158524253Y-60457217D01*
X158524253Y-60457217D02*
X158452825Y-60528646D01*
X158452825Y-60528646D02*
X158381396Y-60671503D01*
X158381396Y-60671503D02*
X158381396Y-60814360D01*
X159381396Y-61957217D02*
X158595682Y-61957217D01*
X158595682Y-61957217D02*
X158452825Y-61885788D01*
X158452825Y-61885788D02*
X158381396Y-61742931D01*
X158381396Y-61742931D02*
X158381396Y-61457217D01*
X158381396Y-61457217D02*
X158452825Y-61314359D01*
X159309968Y-61957217D02*
X159381396Y-61814359D01*
X159381396Y-61814359D02*
X159381396Y-61457217D01*
X159381396Y-61457217D02*
X159309968Y-61314359D01*
X159309968Y-61314359D02*
X159167110Y-61242931D01*
X159167110Y-61242931D02*
X159024253Y-61242931D01*
X159024253Y-61242931D02*
X158881396Y-61314359D01*
X158881396Y-61314359D02*
X158809968Y-61457217D01*
X158809968Y-61457217D02*
X158809968Y-61814359D01*
X158809968Y-61814359D02*
X158738539Y-61957217D01*
X159309968Y-63242931D02*
X159381396Y-63100074D01*
X159381396Y-63100074D02*
X159381396Y-62814360D01*
X159381396Y-62814360D02*
X159309968Y-62671502D01*
X159309968Y-62671502D02*
X159167110Y-62600074D01*
X159167110Y-62600074D02*
X158595682Y-62600074D01*
X158595682Y-62600074D02*
X158452825Y-62671502D01*
X158452825Y-62671502D02*
X158381396Y-62814360D01*
X158381396Y-62814360D02*
X158381396Y-63100074D01*
X158381396Y-63100074D02*
X158452825Y-63242931D01*
X158452825Y-63242931D02*
X158595682Y-63314360D01*
X158595682Y-63314360D02*
X158738539Y-63314360D01*
X158738539Y-63314360D02*
X158881396Y-62600074D01*
X158381396Y-64600074D02*
X159595682Y-64600074D01*
X159595682Y-64600074D02*
X159738539Y-64528645D01*
X159738539Y-64528645D02*
X159809968Y-64457216D01*
X159809968Y-64457216D02*
X159881396Y-64314359D01*
X159881396Y-64314359D02*
X159881396Y-64100074D01*
X159881396Y-64100074D02*
X159809968Y-63957216D01*
X159309968Y-64600074D02*
X159381396Y-64457216D01*
X159381396Y-64457216D02*
X159381396Y-64171502D01*
X159381396Y-64171502D02*
X159309968Y-64028645D01*
X159309968Y-64028645D02*
X159238539Y-63957216D01*
X159238539Y-63957216D02*
X159095682Y-63885788D01*
X159095682Y-63885788D02*
X158667110Y-63885788D01*
X158667110Y-63885788D02*
X158524253Y-63957216D01*
X158524253Y-63957216D02*
X158452825Y-64028645D01*
X158452825Y-64028645D02*
X158381396Y-64171502D01*
X158381396Y-64171502D02*
X158381396Y-64457216D01*
X158381396Y-64457216D02*
X158452825Y-64600074D01*
X159309968Y-65885788D02*
X159381396Y-65742931D01*
X159381396Y-65742931D02*
X159381396Y-65457217D01*
X159381396Y-65457217D02*
X159309968Y-65314359D01*
X159309968Y-65314359D02*
X159167110Y-65242931D01*
X159167110Y-65242931D02*
X158595682Y-65242931D01*
X158595682Y-65242931D02*
X158452825Y-65314359D01*
X158452825Y-65314359D02*
X158381396Y-65457217D01*
X158381396Y-65457217D02*
X158381396Y-65742931D01*
X158381396Y-65742931D02*
X158452825Y-65885788D01*
X158452825Y-65885788D02*
X158595682Y-65957217D01*
X158595682Y-65957217D02*
X158738539Y-65957217D01*
X158738539Y-65957217D02*
X158881396Y-65242931D01*
X159381396Y-66600073D02*
X158381396Y-66600073D01*
X158667110Y-66600073D02*
X158524253Y-66671502D01*
X158524253Y-66671502D02*
X158452825Y-66742931D01*
X158452825Y-66742931D02*
X158381396Y-66885788D01*
X158381396Y-66885788D02*
X158381396Y-67028645D01*
X159238539Y-69528644D02*
X159309968Y-69457216D01*
X159309968Y-69457216D02*
X159381396Y-69242930D01*
X159381396Y-69242930D02*
X159381396Y-69100073D01*
X159381396Y-69100073D02*
X159309968Y-68885787D01*
X159309968Y-68885787D02*
X159167110Y-68742930D01*
X159167110Y-68742930D02*
X159024253Y-68671501D01*
X159024253Y-68671501D02*
X158738539Y-68600073D01*
X158738539Y-68600073D02*
X158524253Y-68600073D01*
X158524253Y-68600073D02*
X158238539Y-68671501D01*
X158238539Y-68671501D02*
X158095682Y-68742930D01*
X158095682Y-68742930D02*
X157952825Y-68885787D01*
X157952825Y-68885787D02*
X157881396Y-69100073D01*
X157881396Y-69100073D02*
X157881396Y-69242930D01*
X157881396Y-69242930D02*
X157952825Y-69457216D01*
X157952825Y-69457216D02*
X158024253Y-69528644D01*
X159381396Y-70385787D02*
X159309968Y-70242930D01*
X159309968Y-70242930D02*
X159238539Y-70171501D01*
X159238539Y-70171501D02*
X159095682Y-70100073D01*
X159095682Y-70100073D02*
X158667110Y-70100073D01*
X158667110Y-70100073D02*
X158524253Y-70171501D01*
X158524253Y-70171501D02*
X158452825Y-70242930D01*
X158452825Y-70242930D02*
X158381396Y-70385787D01*
X158381396Y-70385787D02*
X158381396Y-70600073D01*
X158381396Y-70600073D02*
X158452825Y-70742930D01*
X158452825Y-70742930D02*
X158524253Y-70814359D01*
X158524253Y-70814359D02*
X158667110Y-70885787D01*
X158667110Y-70885787D02*
X159095682Y-70885787D01*
X159095682Y-70885787D02*
X159238539Y-70814359D01*
X159238539Y-70814359D02*
X159309968Y-70742930D01*
X159309968Y-70742930D02*
X159381396Y-70600073D01*
X159381396Y-70600073D02*
X159381396Y-70385787D01*
X158381396Y-71528644D02*
X159381396Y-71528644D01*
X158524253Y-71528644D02*
X158452825Y-71600073D01*
X158452825Y-71600073D02*
X158381396Y-71742930D01*
X158381396Y-71742930D02*
X158381396Y-71957216D01*
X158381396Y-71957216D02*
X158452825Y-72100073D01*
X158452825Y-72100073D02*
X158595682Y-72171502D01*
X158595682Y-72171502D02*
X159381396Y-72171502D01*
X158381396Y-72671502D02*
X158381396Y-73242930D01*
X157881396Y-72885787D02*
X159167110Y-72885787D01*
X159167110Y-72885787D02*
X159309968Y-72957216D01*
X159309968Y-72957216D02*
X159381396Y-73100073D01*
X159381396Y-73100073D02*
X159381396Y-73242930D01*
X159381396Y-73742930D02*
X158381396Y-73742930D01*
X158667110Y-73742930D02*
X158524253Y-73814359D01*
X158524253Y-73814359D02*
X158452825Y-73885788D01*
X158452825Y-73885788D02*
X158381396Y-74028645D01*
X158381396Y-74028645D02*
X158381396Y-74171502D01*
X159381396Y-74885787D02*
X159309968Y-74742930D01*
X159309968Y-74742930D02*
X159238539Y-74671501D01*
X159238539Y-74671501D02*
X159095682Y-74600073D01*
X159095682Y-74600073D02*
X158667110Y-74600073D01*
X158667110Y-74600073D02*
X158524253Y-74671501D01*
X158524253Y-74671501D02*
X158452825Y-74742930D01*
X158452825Y-74742930D02*
X158381396Y-74885787D01*
X158381396Y-74885787D02*
X158381396Y-75100073D01*
X158381396Y-75100073D02*
X158452825Y-75242930D01*
X158452825Y-75242930D02*
X158524253Y-75314359D01*
X158524253Y-75314359D02*
X158667110Y-75385787D01*
X158667110Y-75385787D02*
X159095682Y-75385787D01*
X159095682Y-75385787D02*
X159238539Y-75314359D01*
X159238539Y-75314359D02*
X159309968Y-75242930D01*
X159309968Y-75242930D02*
X159381396Y-75100073D01*
X159381396Y-75100073D02*
X159381396Y-74885787D01*
X159381396Y-76242930D02*
X159309968Y-76100073D01*
X159309968Y-76100073D02*
X159167110Y-76028644D01*
X159167110Y-76028644D02*
X157881396Y-76028644D01*
X159381396Y-77028644D02*
X159309968Y-76885787D01*
X159309968Y-76885787D02*
X159167110Y-76814358D01*
X159167110Y-76814358D02*
X157881396Y-76814358D01*
X159309968Y-78171501D02*
X159381396Y-78028644D01*
X159381396Y-78028644D02*
X159381396Y-77742930D01*
X159381396Y-77742930D02*
X159309968Y-77600072D01*
X159309968Y-77600072D02*
X159167110Y-77528644D01*
X159167110Y-77528644D02*
X158595682Y-77528644D01*
X158595682Y-77528644D02*
X158452825Y-77600072D01*
X158452825Y-77600072D02*
X158381396Y-77742930D01*
X158381396Y-77742930D02*
X158381396Y-78028644D01*
X158381396Y-78028644D02*
X158452825Y-78171501D01*
X158452825Y-78171501D02*
X158595682Y-78242930D01*
X158595682Y-78242930D02*
X158738539Y-78242930D01*
X158738539Y-78242930D02*
X158881396Y-77528644D01*
X159381396Y-78885786D02*
X158381396Y-78885786D01*
X158667110Y-78885786D02*
X158524253Y-78957215D01*
X158524253Y-78957215D02*
X158452825Y-79028644D01*
X158452825Y-79028644D02*
X158381396Y-79171501D01*
X158381396Y-79171501D02*
X158381396Y-79314358D01*
X162367741Y-59671503D02*
X162296312Y-59600074D01*
X162296312Y-59600074D02*
X162082026Y-59457217D01*
X162082026Y-59457217D02*
X161939169Y-59385789D01*
X161939169Y-59385789D02*
X161724884Y-59314360D01*
X161724884Y-59314360D02*
X161367741Y-59242931D01*
X161367741Y-59242931D02*
X161082026Y-59242931D01*
X161082026Y-59242931D02*
X160724884Y-59314360D01*
X160724884Y-59314360D02*
X160510598Y-59385789D01*
X160510598Y-59385789D02*
X160367741Y-59457217D01*
X160367741Y-59457217D02*
X160153455Y-59600074D01*
X160153455Y-59600074D02*
X160082026Y-59671503D01*
X161724884Y-60885789D02*
X161796312Y-60742931D01*
X161796312Y-60742931D02*
X161796312Y-60457217D01*
X161796312Y-60457217D02*
X161724884Y-60314360D01*
X161724884Y-60314360D02*
X161653455Y-60242931D01*
X161653455Y-60242931D02*
X161510598Y-60171503D01*
X161510598Y-60171503D02*
X161082026Y-60171503D01*
X161082026Y-60171503D02*
X160939169Y-60242931D01*
X160939169Y-60242931D02*
X160867741Y-60314360D01*
X160867741Y-60314360D02*
X160796312Y-60457217D01*
X160796312Y-60457217D02*
X160796312Y-60742931D01*
X160796312Y-60742931D02*
X160867741Y-60885789D01*
X162367741Y-61385788D02*
X162296312Y-61457217D01*
X162296312Y-61457217D02*
X162082026Y-61600074D01*
X162082026Y-61600074D02*
X161939169Y-61671503D01*
X161939169Y-61671503D02*
X161724884Y-61742931D01*
X161724884Y-61742931D02*
X161367741Y-61814360D01*
X161367741Y-61814360D02*
X161082026Y-61814360D01*
X161082026Y-61814360D02*
X160724884Y-61742931D01*
X160724884Y-61742931D02*
X160510598Y-61671503D01*
X160510598Y-61671503D02*
X160367741Y-61600074D01*
X160367741Y-61600074D02*
X160153455Y-61457217D01*
X160153455Y-61457217D02*
X160082026Y-61385788D01*
X160439169Y-63600074D02*
X160367741Y-63671502D01*
X160367741Y-63671502D02*
X160296312Y-63814360D01*
X160296312Y-63814360D02*
X160296312Y-64171502D01*
X160296312Y-64171502D02*
X160367741Y-64314360D01*
X160367741Y-64314360D02*
X160439169Y-64385788D01*
X160439169Y-64385788D02*
X160582026Y-64457217D01*
X160582026Y-64457217D02*
X160724884Y-64457217D01*
X160724884Y-64457217D02*
X160939169Y-64385788D01*
X160939169Y-64385788D02*
X161796312Y-63528645D01*
X161796312Y-63528645D02*
X161796312Y-64457217D01*
X160296312Y-65385788D02*
X160296312Y-65528645D01*
X160296312Y-65528645D02*
X160367741Y-65671502D01*
X160367741Y-65671502D02*
X160439169Y-65742931D01*
X160439169Y-65742931D02*
X160582026Y-65814359D01*
X160582026Y-65814359D02*
X160867741Y-65885788D01*
X160867741Y-65885788D02*
X161224884Y-65885788D01*
X161224884Y-65885788D02*
X161510598Y-65814359D01*
X161510598Y-65814359D02*
X161653455Y-65742931D01*
X161653455Y-65742931D02*
X161724884Y-65671502D01*
X161724884Y-65671502D02*
X161796312Y-65528645D01*
X161796312Y-65528645D02*
X161796312Y-65385788D01*
X161796312Y-65385788D02*
X161724884Y-65242931D01*
X161724884Y-65242931D02*
X161653455Y-65171502D01*
X161653455Y-65171502D02*
X161510598Y-65100073D01*
X161510598Y-65100073D02*
X161224884Y-65028645D01*
X161224884Y-65028645D02*
X160867741Y-65028645D01*
X160867741Y-65028645D02*
X160582026Y-65100073D01*
X160582026Y-65100073D02*
X160439169Y-65171502D01*
X160439169Y-65171502D02*
X160367741Y-65242931D01*
X160367741Y-65242931D02*
X160296312Y-65385788D01*
X160439169Y-66457216D02*
X160367741Y-66528644D01*
X160367741Y-66528644D02*
X160296312Y-66671502D01*
X160296312Y-66671502D02*
X160296312Y-67028644D01*
X160296312Y-67028644D02*
X160367741Y-67171502D01*
X160367741Y-67171502D02*
X160439169Y-67242930D01*
X160439169Y-67242930D02*
X160582026Y-67314359D01*
X160582026Y-67314359D02*
X160724884Y-67314359D01*
X160724884Y-67314359D02*
X160939169Y-67242930D01*
X160939169Y-67242930D02*
X161796312Y-66385787D01*
X161796312Y-66385787D02*
X161796312Y-67314359D01*
X160296312Y-68671501D02*
X160296312Y-67957215D01*
X160296312Y-67957215D02*
X161010598Y-67885787D01*
X161010598Y-67885787D02*
X160939169Y-67957215D01*
X160939169Y-67957215D02*
X160867741Y-68100073D01*
X160867741Y-68100073D02*
X160867741Y-68457215D01*
X160867741Y-68457215D02*
X160939169Y-68600073D01*
X160939169Y-68600073D02*
X161010598Y-68671501D01*
X161010598Y-68671501D02*
X161153455Y-68742930D01*
X161153455Y-68742930D02*
X161510598Y-68742930D01*
X161510598Y-68742930D02*
X161653455Y-68671501D01*
X161653455Y-68671501D02*
X161724884Y-68600073D01*
X161724884Y-68600073D02*
X161796312Y-68457215D01*
X161796312Y-68457215D02*
X161796312Y-68100073D01*
X161796312Y-68100073D02*
X161724884Y-67957215D01*
X161724884Y-67957215D02*
X161653455Y-67885787D01*
X161724884Y-69457215D02*
X161796312Y-69457215D01*
X161796312Y-69457215D02*
X161939169Y-69385786D01*
X161939169Y-69385786D02*
X162010598Y-69314358D01*
X160439169Y-71171501D02*
X160367741Y-71242929D01*
X160367741Y-71242929D02*
X160296312Y-71385787D01*
X160296312Y-71385787D02*
X160296312Y-71742929D01*
X160296312Y-71742929D02*
X160367741Y-71885787D01*
X160367741Y-71885787D02*
X160439169Y-71957215D01*
X160439169Y-71957215D02*
X160582026Y-72028644D01*
X160582026Y-72028644D02*
X160724884Y-72028644D01*
X160724884Y-72028644D02*
X160939169Y-71957215D01*
X160939169Y-71957215D02*
X161796312Y-71100072D01*
X161796312Y-71100072D02*
X161796312Y-72028644D01*
X160296312Y-72957215D02*
X160296312Y-73100072D01*
X160296312Y-73100072D02*
X160367741Y-73242929D01*
X160367741Y-73242929D02*
X160439169Y-73314358D01*
X160439169Y-73314358D02*
X160582026Y-73385786D01*
X160582026Y-73385786D02*
X160867741Y-73457215D01*
X160867741Y-73457215D02*
X161224884Y-73457215D01*
X161224884Y-73457215D02*
X161510598Y-73385786D01*
X161510598Y-73385786D02*
X161653455Y-73314358D01*
X161653455Y-73314358D02*
X161724884Y-73242929D01*
X161724884Y-73242929D02*
X161796312Y-73100072D01*
X161796312Y-73100072D02*
X161796312Y-72957215D01*
X161796312Y-72957215D02*
X161724884Y-72814358D01*
X161724884Y-72814358D02*
X161653455Y-72742929D01*
X161653455Y-72742929D02*
X161510598Y-72671500D01*
X161510598Y-72671500D02*
X161224884Y-72600072D01*
X161224884Y-72600072D02*
X160867741Y-72600072D01*
X160867741Y-72600072D02*
X160582026Y-72671500D01*
X160582026Y-72671500D02*
X160439169Y-72742929D01*
X160439169Y-72742929D02*
X160367741Y-72814358D01*
X160367741Y-72814358D02*
X160296312Y-72957215D01*
X160439169Y-74028643D02*
X160367741Y-74100071D01*
X160367741Y-74100071D02*
X160296312Y-74242929D01*
X160296312Y-74242929D02*
X160296312Y-74600071D01*
X160296312Y-74600071D02*
X160367741Y-74742929D01*
X160367741Y-74742929D02*
X160439169Y-74814357D01*
X160439169Y-74814357D02*
X160582026Y-74885786D01*
X160582026Y-74885786D02*
X160724884Y-74885786D01*
X160724884Y-74885786D02*
X160939169Y-74814357D01*
X160939169Y-74814357D02*
X161796312Y-73957214D01*
X161796312Y-73957214D02*
X161796312Y-74885786D01*
X160296312Y-76171500D02*
X160296312Y-75885785D01*
X160296312Y-75885785D02*
X160367741Y-75742928D01*
X160367741Y-75742928D02*
X160439169Y-75671500D01*
X160439169Y-75671500D02*
X160653455Y-75528642D01*
X160653455Y-75528642D02*
X160939169Y-75457214D01*
X160939169Y-75457214D02*
X161510598Y-75457214D01*
X161510598Y-75457214D02*
X161653455Y-75528642D01*
X161653455Y-75528642D02*
X161724884Y-75600071D01*
X161724884Y-75600071D02*
X161796312Y-75742928D01*
X161796312Y-75742928D02*
X161796312Y-76028642D01*
X161796312Y-76028642D02*
X161724884Y-76171500D01*
X161724884Y-76171500D02*
X161653455Y-76242928D01*
X161653455Y-76242928D02*
X161510598Y-76314357D01*
X161510598Y-76314357D02*
X161153455Y-76314357D01*
X161153455Y-76314357D02*
X161010598Y-76242928D01*
X161010598Y-76242928D02*
X160939169Y-76171500D01*
X160939169Y-76171500D02*
X160867741Y-76028642D01*
X160867741Y-76028642D02*
X160867741Y-75742928D01*
X160867741Y-75742928D02*
X160939169Y-75600071D01*
X160939169Y-75600071D02*
X161010598Y-75528642D01*
X161010598Y-75528642D02*
X161153455Y-75457214D01*
X160296312Y-78528642D02*
X161367741Y-78528642D01*
X161367741Y-78528642D02*
X161582026Y-78457213D01*
X161582026Y-78457213D02*
X161724884Y-78314356D01*
X161724884Y-78314356D02*
X161796312Y-78100070D01*
X161796312Y-78100070D02*
X161796312Y-77957213D01*
X161724884Y-79814356D02*
X161796312Y-79671499D01*
X161796312Y-79671499D02*
X161796312Y-79385785D01*
X161796312Y-79385785D02*
X161724884Y-79242927D01*
X161724884Y-79242927D02*
X161582026Y-79171499D01*
X161582026Y-79171499D02*
X161010598Y-79171499D01*
X161010598Y-79171499D02*
X160867741Y-79242927D01*
X160867741Y-79242927D02*
X160796312Y-79385785D01*
X160796312Y-79385785D02*
X160796312Y-79671499D01*
X160796312Y-79671499D02*
X160867741Y-79814356D01*
X160867741Y-79814356D02*
X161010598Y-79885785D01*
X161010598Y-79885785D02*
X161153455Y-79885785D01*
X161153455Y-79885785D02*
X161296312Y-79171499D01*
X160796312Y-80314356D02*
X160796312Y-80885784D01*
X161796312Y-80528641D02*
X160510598Y-80528641D01*
X160510598Y-80528641D02*
X160367741Y-80600070D01*
X160367741Y-80600070D02*
X160296312Y-80742927D01*
X160296312Y-80742927D02*
X160296312Y-80885784D01*
X160796312Y-81171499D02*
X160796312Y-81742927D01*
X161796312Y-81385784D02*
X160510598Y-81385784D01*
X160510598Y-81385784D02*
X160367741Y-81457213D01*
X160367741Y-81457213D02*
X160296312Y-81600070D01*
X160296312Y-81600070D02*
X160296312Y-81742927D01*
X161724884Y-83314356D02*
X161796312Y-83528642D01*
X161796312Y-83528642D02*
X161796312Y-83885784D01*
X161796312Y-83885784D02*
X161724884Y-84028642D01*
X161724884Y-84028642D02*
X161653455Y-84100070D01*
X161653455Y-84100070D02*
X161510598Y-84171499D01*
X161510598Y-84171499D02*
X161367741Y-84171499D01*
X161367741Y-84171499D02*
X161224884Y-84100070D01*
X161224884Y-84100070D02*
X161153455Y-84028642D01*
X161153455Y-84028642D02*
X161082026Y-83885784D01*
X161082026Y-83885784D02*
X161010598Y-83600070D01*
X161010598Y-83600070D02*
X160939169Y-83457213D01*
X160939169Y-83457213D02*
X160867741Y-83385784D01*
X160867741Y-83385784D02*
X160724884Y-83314356D01*
X160724884Y-83314356D02*
X160582026Y-83314356D01*
X160582026Y-83314356D02*
X160439169Y-83385784D01*
X160439169Y-83385784D02*
X160367741Y-83457213D01*
X160367741Y-83457213D02*
X160296312Y-83600070D01*
X160296312Y-83600070D02*
X160296312Y-83957213D01*
X160296312Y-83957213D02*
X160367741Y-84171499D01*
X160796312Y-84600070D02*
X160796312Y-85171498D01*
X160296312Y-84814355D02*
X161582026Y-84814355D01*
X161582026Y-84814355D02*
X161724884Y-84885784D01*
X161724884Y-84885784D02*
X161796312Y-85028641D01*
X161796312Y-85028641D02*
X161796312Y-85171498D01*
X161724884Y-86242927D02*
X161796312Y-86100070D01*
X161796312Y-86100070D02*
X161796312Y-85814356D01*
X161796312Y-85814356D02*
X161724884Y-85671498D01*
X161724884Y-85671498D02*
X161582026Y-85600070D01*
X161582026Y-85600070D02*
X161010598Y-85600070D01*
X161010598Y-85600070D02*
X160867741Y-85671498D01*
X160867741Y-85671498D02*
X160796312Y-85814356D01*
X160796312Y-85814356D02*
X160796312Y-86100070D01*
X160796312Y-86100070D02*
X160867741Y-86242927D01*
X160867741Y-86242927D02*
X161010598Y-86314356D01*
X161010598Y-86314356D02*
X161153455Y-86314356D01*
X161153455Y-86314356D02*
X161296312Y-85600070D01*
X160796312Y-86814355D02*
X161796312Y-87171498D01*
X161796312Y-87171498D02*
X160796312Y-87528641D01*
X161724884Y-88671498D02*
X161796312Y-88528641D01*
X161796312Y-88528641D02*
X161796312Y-88242927D01*
X161796312Y-88242927D02*
X161724884Y-88100069D01*
X161724884Y-88100069D02*
X161582026Y-88028641D01*
X161582026Y-88028641D02*
X161010598Y-88028641D01*
X161010598Y-88028641D02*
X160867741Y-88100069D01*
X160867741Y-88100069D02*
X160796312Y-88242927D01*
X160796312Y-88242927D02*
X160796312Y-88528641D01*
X160796312Y-88528641D02*
X160867741Y-88671498D01*
X160867741Y-88671498D02*
X161010598Y-88742927D01*
X161010598Y-88742927D02*
X161153455Y-88742927D01*
X161153455Y-88742927D02*
X161296312Y-88028641D01*
X160796312Y-89385783D02*
X161796312Y-89385783D01*
X160939169Y-89385783D02*
X160867741Y-89457212D01*
X160867741Y-89457212D02*
X160796312Y-89600069D01*
X160796312Y-89600069D02*
X160796312Y-89814355D01*
X160796312Y-89814355D02*
X160867741Y-89957212D01*
X160867741Y-89957212D02*
X161010598Y-90028641D01*
X161010598Y-90028641D02*
X161796312Y-90028641D01*
X161724884Y-90671498D02*
X161796312Y-90814355D01*
X161796312Y-90814355D02*
X161796312Y-91100069D01*
X161796312Y-91100069D02*
X161724884Y-91242926D01*
X161724884Y-91242926D02*
X161582026Y-91314355D01*
X161582026Y-91314355D02*
X161510598Y-91314355D01*
X161510598Y-91314355D02*
X161367741Y-91242926D01*
X161367741Y-91242926D02*
X161296312Y-91100069D01*
X161296312Y-91100069D02*
X161296312Y-90885784D01*
X161296312Y-90885784D02*
X161224884Y-90742926D01*
X161224884Y-90742926D02*
X161082026Y-90671498D01*
X161082026Y-90671498D02*
X161010598Y-90671498D01*
X161010598Y-90671498D02*
X160867741Y-90742926D01*
X160867741Y-90742926D02*
X160796312Y-90885784D01*
X160796312Y-90885784D02*
X160796312Y-91100069D01*
X160796312Y-91100069D02*
X160867741Y-91242926D01*
X161796312Y-92171498D02*
X161724884Y-92028641D01*
X161724884Y-92028641D02*
X161653455Y-91957212D01*
X161653455Y-91957212D02*
X161510598Y-91885784D01*
X161510598Y-91885784D02*
X161082026Y-91885784D01*
X161082026Y-91885784D02*
X160939169Y-91957212D01*
X160939169Y-91957212D02*
X160867741Y-92028641D01*
X160867741Y-92028641D02*
X160796312Y-92171498D01*
X160796312Y-92171498D02*
X160796312Y-92385784D01*
X160796312Y-92385784D02*
X160867741Y-92528641D01*
X160867741Y-92528641D02*
X160939169Y-92600070D01*
X160939169Y-92600070D02*
X161082026Y-92671498D01*
X161082026Y-92671498D02*
X161510598Y-92671498D01*
X161510598Y-92671498D02*
X161653455Y-92600070D01*
X161653455Y-92600070D02*
X161724884Y-92528641D01*
X161724884Y-92528641D02*
X161796312Y-92385784D01*
X161796312Y-92385784D02*
X161796312Y-92171498D01*
X160796312Y-93314355D02*
X161796312Y-93314355D01*
X160939169Y-93314355D02*
X160867741Y-93385784D01*
X160867741Y-93385784D02*
X160796312Y-93528641D01*
X160796312Y-93528641D02*
X160796312Y-93742927D01*
X160796312Y-93742927D02*
X160867741Y-93885784D01*
X160867741Y-93885784D02*
X161010598Y-93957213D01*
X161010598Y-93957213D02*
X161796312Y-93957213D01*
X164211228Y-60100074D02*
X163496942Y-59600074D01*
X164211228Y-59242931D02*
X162711228Y-59242931D01*
X162711228Y-59242931D02*
X162711228Y-59814360D01*
X162711228Y-59814360D02*
X162782657Y-59957217D01*
X162782657Y-59957217D02*
X162854085Y-60028646D01*
X162854085Y-60028646D02*
X162996942Y-60100074D01*
X162996942Y-60100074D02*
X163211228Y-60100074D01*
X163211228Y-60100074D02*
X163354085Y-60028646D01*
X163354085Y-60028646D02*
X163425514Y-59957217D01*
X163425514Y-59957217D02*
X163496942Y-59814360D01*
X163496942Y-59814360D02*
X163496942Y-59242931D01*
X163425514Y-60742931D02*
X163425514Y-61242931D01*
X164211228Y-61457217D02*
X164211228Y-60742931D01*
X164211228Y-60742931D02*
X162711228Y-60742931D01*
X162711228Y-60742931D02*
X162711228Y-61457217D01*
X162711228Y-61885789D02*
X164211228Y-62385789D01*
X164211228Y-62385789D02*
X162711228Y-62885789D01*
X162854085Y-64457217D02*
X162782657Y-64528645D01*
X162782657Y-64528645D02*
X162711228Y-64671503D01*
X162711228Y-64671503D02*
X162711228Y-65028645D01*
X162711228Y-65028645D02*
X162782657Y-65171503D01*
X162782657Y-65171503D02*
X162854085Y-65242931D01*
X162854085Y-65242931D02*
X162996942Y-65314360D01*
X162996942Y-65314360D02*
X163139800Y-65314360D01*
X163139800Y-65314360D02*
X163354085Y-65242931D01*
X163354085Y-65242931D02*
X164211228Y-64385788D01*
X164211228Y-64385788D02*
X164211228Y-65314360D01*
X164068371Y-65957216D02*
X164139800Y-66028645D01*
X164139800Y-66028645D02*
X164211228Y-65957216D01*
X164211228Y-65957216D02*
X164139800Y-65885788D01*
X164139800Y-65885788D02*
X164068371Y-65957216D01*
X164068371Y-65957216D02*
X164211228Y-65957216D01*
X162711228Y-66528645D02*
X162711228Y-67457217D01*
X162711228Y-67457217D02*
X163282657Y-66957217D01*
X163282657Y-66957217D02*
X163282657Y-67171502D01*
X163282657Y-67171502D02*
X163354085Y-67314360D01*
X163354085Y-67314360D02*
X163425514Y-67385788D01*
X163425514Y-67385788D02*
X163568371Y-67457217D01*
X163568371Y-67457217D02*
X163925514Y-67457217D01*
X163925514Y-67457217D02*
X164068371Y-67385788D01*
X164068371Y-67385788D02*
X164139800Y-67314360D01*
X164139800Y-67314360D02*
X164211228Y-67171502D01*
X164211228Y-67171502D02*
X164211228Y-66742931D01*
X164211228Y-66742931D02*
X164139800Y-66600074D01*
X164139800Y-66600074D02*
X164068371Y-66528645D01*
X164068371Y-68100073D02*
X164139800Y-68171502D01*
X164139800Y-68171502D02*
X164211228Y-68100073D01*
X164211228Y-68100073D02*
X164139800Y-68028645D01*
X164139800Y-68028645D02*
X164068371Y-68100073D01*
X164068371Y-68100073D02*
X164211228Y-68100073D01*
X162711228Y-69100074D02*
X162711228Y-69242931D01*
X162711228Y-69242931D02*
X162782657Y-69385788D01*
X162782657Y-69385788D02*
X162854085Y-69457217D01*
X162854085Y-69457217D02*
X162996942Y-69528645D01*
X162996942Y-69528645D02*
X163282657Y-69600074D01*
X163282657Y-69600074D02*
X163639800Y-69600074D01*
X163639800Y-69600074D02*
X163925514Y-69528645D01*
X163925514Y-69528645D02*
X164068371Y-69457217D01*
X164068371Y-69457217D02*
X164139800Y-69385788D01*
X164139800Y-69385788D02*
X164211228Y-69242931D01*
X164211228Y-69242931D02*
X164211228Y-69100074D01*
X164211228Y-69100074D02*
X164139800Y-68957217D01*
X164139800Y-68957217D02*
X164068371Y-68885788D01*
X164068371Y-68885788D02*
X163925514Y-68814359D01*
X163925514Y-68814359D02*
X163639800Y-68742931D01*
X163639800Y-68742931D02*
X163282657Y-68742931D01*
X163282657Y-68742931D02*
X162996942Y-68814359D01*
X162996942Y-68814359D02*
X162854085Y-68885788D01*
X162854085Y-68885788D02*
X162782657Y-68957217D01*
X162782657Y-68957217D02*
X162711228Y-69100074D01*
X164211228Y-72171502D02*
X164211228Y-71314359D01*
X164211228Y-71742930D02*
X162711228Y-71742930D01*
X162711228Y-71742930D02*
X162925514Y-71600073D01*
X162925514Y-71600073D02*
X163068371Y-71457216D01*
X163068371Y-71457216D02*
X163139800Y-71314359D01*
X163639800Y-72814358D02*
X163639800Y-73957216D01*
X162711228Y-75385787D02*
X162711228Y-74671501D01*
X162711228Y-74671501D02*
X163425514Y-74600073D01*
X163425514Y-74600073D02*
X163354085Y-74671501D01*
X163354085Y-74671501D02*
X163282657Y-74814359D01*
X163282657Y-74814359D02*
X163282657Y-75171501D01*
X163282657Y-75171501D02*
X163354085Y-75314359D01*
X163354085Y-75314359D02*
X163425514Y-75385787D01*
X163425514Y-75385787D02*
X163568371Y-75457216D01*
X163568371Y-75457216D02*
X163925514Y-75457216D01*
X163925514Y-75457216D02*
X164068371Y-75385787D01*
X164068371Y-75385787D02*
X164139800Y-75314359D01*
X164139800Y-75314359D02*
X164211228Y-75171501D01*
X164211228Y-75171501D02*
X164211228Y-74814359D01*
X164211228Y-74814359D02*
X164139800Y-74671501D01*
X164139800Y-74671501D02*
X164068371Y-74600073D01*
X163639800Y-76100072D02*
X163639800Y-77242930D01*
X162854085Y-77885787D02*
X162782657Y-77957215D01*
X162782657Y-77957215D02*
X162711228Y-78100073D01*
X162711228Y-78100073D02*
X162711228Y-78457215D01*
X162711228Y-78457215D02*
X162782657Y-78600073D01*
X162782657Y-78600073D02*
X162854085Y-78671501D01*
X162854085Y-78671501D02*
X162996942Y-78742930D01*
X162996942Y-78742930D02*
X163139800Y-78742930D01*
X163139800Y-78742930D02*
X163354085Y-78671501D01*
X163354085Y-78671501D02*
X164211228Y-77814358D01*
X164211228Y-77814358D02*
X164211228Y-78742930D01*
X162711228Y-80028644D02*
X162711228Y-79742929D01*
X162711228Y-79742929D02*
X162782657Y-79600072D01*
X162782657Y-79600072D02*
X162854085Y-79528644D01*
X162854085Y-79528644D02*
X163068371Y-79385786D01*
X163068371Y-79385786D02*
X163354085Y-79314358D01*
X163354085Y-79314358D02*
X163925514Y-79314358D01*
X163925514Y-79314358D02*
X164068371Y-79385786D01*
X164068371Y-79385786D02*
X164139800Y-79457215D01*
X164139800Y-79457215D02*
X164211228Y-79600072D01*
X164211228Y-79600072D02*
X164211228Y-79885786D01*
X164211228Y-79885786D02*
X164139800Y-80028644D01*
X164139800Y-80028644D02*
X164068371Y-80100072D01*
X164068371Y-80100072D02*
X163925514Y-80171501D01*
X163925514Y-80171501D02*
X163568371Y-80171501D01*
X163568371Y-80171501D02*
X163425514Y-80100072D01*
X163425514Y-80100072D02*
X163354085Y-80028644D01*
X163354085Y-80028644D02*
X163282657Y-79885786D01*
X163282657Y-79885786D02*
X163282657Y-79600072D01*
X163282657Y-79600072D02*
X163354085Y-79457215D01*
X163354085Y-79457215D02*
X163425514Y-79385786D01*
X163425514Y-79385786D02*
X163568371Y-79314358D01*
M02*
