%TF.GenerationSoftware,KiCad,Pcbnew,8.0.8*%
%TF.CreationDate,2026-01-05T18:13:38-07:00*%
%TF.ProjectId,Traeger rev 2.3.0.kicad_pro,54726165-6765-4722-9072-657620322e33,rev?*%
%TF.SameCoordinates,Original*%
%TF.FileFunction,Copper,L1,Top*%
%TF.FilePolarity,Positive*%
%FSLAX46Y46*%
G04 Gerber Fmt 4.6, Leading zero omitted, Abs format (unit mm)*
G04 Created by KiCad (PCBNEW 8.0.8) date 2026-01-05 18:13:38*
%MOMM*%
%LPD*%
G01*
G04 APERTURE LIST*
G04 Aperture macros list*
%AMRoundRect*
0 Rectangle with rounded corners*
0 $1 Rounding radius*
0 $2 $3 $4 $5 $6 $7 $8 $9 X,Y pos of 4 corners*
0 Add a 4 corners polygon primitive as box body*
4,1,4,$2,$3,$4,$5,$6,$7,$8,$9,$2,$3,0*
0 Add four circle primitives for the rounded corners*
1,1,$1+$1,$2,$3*
1,1,$1+$1,$4,$5*
1,1,$1+$1,$6,$7*
1,1,$1+$1,$8,$9*
0 Add four rect primitives between the rounded corners*
20,1,$1+$1,$2,$3,$4,$5,0*
20,1,$1+$1,$4,$5,$6,$7,0*
20,1,$1+$1,$6,$7,$8,$9,0*
20,1,$1+$1,$8,$9,$2,$3,0*%
G04 Aperture macros list end*
%TA.AperFunction,ComponentPad*%
%ADD10C,1.600000*%
%TD*%
%TA.AperFunction,ComponentPad*%
%ADD11O,1.600000X1.600000*%
%TD*%
%TA.AperFunction,ComponentPad*%
%ADD12C,2.159000*%
%TD*%
%TA.AperFunction,ComponentPad*%
%ADD13R,1.800000X1.800000*%
%TD*%
%TA.AperFunction,ComponentPad*%
%ADD14C,1.800000*%
%TD*%
%TA.AperFunction,ComponentPad*%
%ADD15R,2.500000X2.500000*%
%TD*%
%TA.AperFunction,ComponentPad*%
%ADD16C,2.500000*%
%TD*%
%TA.AperFunction,ComponentPad*%
%ADD17R,2.000000X1.200000*%
%TD*%
%TA.AperFunction,ComponentPad*%
%ADD18O,2.000000X1.200000*%
%TD*%
%TA.AperFunction,ComponentPad*%
%ADD19RoundRect,0.250000X0.725000X-0.600000X0.725000X0.600000X-0.725000X0.600000X-0.725000X-0.600000X0*%
%TD*%
%TA.AperFunction,ComponentPad*%
%ADD20O,1.950000X1.700000*%
%TD*%
%TA.AperFunction,ComponentPad*%
%ADD21RoundRect,0.250000X-0.600000X-0.725000X0.600000X-0.725000X0.600000X0.725000X-0.600000X0.725000X0*%
%TD*%
%TA.AperFunction,ComponentPad*%
%ADD22O,1.700000X1.950000*%
%TD*%
%TA.AperFunction,ComponentPad*%
%ADD23R,1.700000X1.700000*%
%TD*%
%TA.AperFunction,ComponentPad*%
%ADD24O,1.700000X1.700000*%
%TD*%
%TA.AperFunction,ComponentPad*%
%ADD25R,1.508000X1.508000*%
%TD*%
%TA.AperFunction,ComponentPad*%
%ADD26C,1.508000*%
%TD*%
%TA.AperFunction,ComponentPad*%
%ADD27C,3.200000*%
%TD*%
%TA.AperFunction,ComponentPad*%
%ADD28R,1.050000X1.500000*%
%TD*%
%TA.AperFunction,ComponentPad*%
%ADD29O,1.050000X1.500000*%
%TD*%
%TA.AperFunction,ComponentPad*%
%ADD30R,2.000000X1.700000*%
%TD*%
%TA.AperFunction,ComponentPad*%
%ADD31O,2.000000X1.700000*%
%TD*%
%TA.AperFunction,ComponentPad*%
%ADD32R,1.600000X1.600000*%
%TD*%
%TA.AperFunction,ViaPad*%
%ADD33C,0.600000*%
%TD*%
%TA.AperFunction,Conductor*%
%ADD34C,1.000000*%
%TD*%
%TA.AperFunction,Conductor*%
%ADD35C,2.000000*%
%TD*%
%TA.AperFunction,Conductor*%
%ADD36C,0.200000*%
%TD*%
G04 APERTURE END LIST*
D10*
%TO.P,R6,1*%
%TO.N,Net-(Q2-B)*%
X171680000Y-63690000D03*
D11*
%TO.P,R6,2*%
%TO.N,GND*%
X179300000Y-63690000D03*
%TD*%
D12*
%TO.P,F1,1*%
%TO.N,Net-(J9-Pin_1)*%
X112810000Y-61658000D03*
X112810000Y-65064001D03*
%TO.P,F1,2*%
%TO.N,PWR*%
X112810000Y-69534002D03*
X112810000Y-72940004D03*
%TD*%
D13*
%TO.P,D7,1,K*%
%TO.N,Net-(D7-K)*%
X142260000Y-82250000D03*
D14*
%TO.P,D7,2,A*%
%TO.N,Net-(D7-A)*%
X144800000Y-82250000D03*
%TD*%
D13*
%TO.P,D1,1,K*%
%TO.N,Net-(D1-K)*%
X142280000Y-67570000D03*
D14*
%TO.P,D1,2,A*%
%TO.N,Net-(D1-A)*%
X144820000Y-67570000D03*
%TD*%
D10*
%TO.P,R23,1*%
%TO.N,VCC*%
X179630000Y-75120000D03*
D11*
%TO.P,R23,2*%
%TO.N,Net-(D9-A)*%
X172010000Y-75120000D03*
%TD*%
D15*
%TO.P,J7,1,Pin_1*%
%TO.N,ADC1_A1*%
X149910000Y-110440000D03*
D16*
%TO.P,J7,2,Pin_2*%
%TO.N,VCC*%
X144910000Y-110440000D03*
%TO.P,J7,3,Pin_3*%
%TO.N,ADC1_A0*%
X139910000Y-110440000D03*
%TO.P,J7,4,Pin_4*%
%TO.N,VCC*%
X134910000Y-110440000D03*
%TD*%
D17*
%TO.P,U1,1,3V3*%
%TO.N,3V3*%
X182930000Y-58740000D03*
D18*
%TO.P,U1,2,3V3*%
X182930000Y-61280000D03*
%TO.P,U1,3,CHIP_PU*%
%TO.N,unconnected-(U1-CHIP_PU-Pad3)*%
X182930000Y-63820000D03*
%TO.P,U1,4,GPIO4/ADC1_CH3*%
%TO.N,MISO_SDO*%
X182930000Y-66360000D03*
%TO.P,U1,5,GPIO5/ADC1_CH4*%
%TO.N,Disp_D{slash}C*%
X182930000Y-68900000D03*
%TO.P,U1,6,GPIO6/ADC1_CH5*%
%TO.N,Disp_RESET*%
X182930000Y-71440000D03*
%TO.P,U1,7,GPIO7/ADC1_CH6*%
%TO.N,Disp_CS*%
X182930000Y-73980000D03*
%TO.P,U1,8,GPIO15/ADC2_CH4/32K_P*%
%TO.N,CS_MAX6675*%
X182930000Y-76520000D03*
%TO.P,U1,9,GPIO16/ADC2_CH5/32K_N*%
%TO.N,unconnected-(U1-GPIO16{slash}ADC2_CH5{slash}32K_N-Pad9)*%
X182930000Y-79060000D03*
%TO.P,U1,10,GPIO17/ADC2_CH6*%
%TO.N,MAX31865_CS*%
X182930000Y-81600000D03*
%TO.P,U1,11,GPIO18/ADC2_CH7*%
%TO.N,Rotary pin_a*%
X182930000Y-84140000D03*
%TO.P,U1,12,GPIO8/ADC1_CH7*%
%TO.N,Rotary pin_b*%
X182930000Y-86680000D03*
%TO.P,U1,13,GPIO3/ADC1_CH2*%
%TO.N,Rotarty - SW*%
X182930000Y-89220000D03*
%TO.P,U1,14,GPIO46*%
%TO.N,unconnected-(U1-GPIO46-Pad14)*%
X182930000Y-91760000D03*
%TO.P,U1,15,GPIO9/ADC1_CH8*%
%TO.N,SDA*%
X182930000Y-94300000D03*
%TO.P,U1,16,GPIO10/ADC1_CH9*%
%TO.N,POWER SW*%
X182930000Y-96840000D03*
%TO.P,U1,17,GPIO11/ADC2_CH0*%
%TO.N,R_FANS*%
X182930000Y-99380000D03*
%TO.P,U1,18,GPIO12/ADC2_CH1*%
%TO.N,R_AUG1*%
X182930000Y-101920000D03*
%TO.P,U1,19,GPIO13/ADC2_CH2*%
%TO.N,R_IGN1*%
X182930000Y-104460000D03*
%TO.P,U1,20,GPIO14/ADC2_CH3*%
%TO.N,SMOKE SW*%
X182926320Y-106997280D03*
%TO.P,U1,21,5V*%
%TO.N,VCC*%
X182926320Y-109537280D03*
%TO.P,U1,22,GND*%
%TO.N,GND*%
X182926320Y-112077280D03*
%TO.P,U1,23,GND*%
X207830000Y-112070000D03*
%TO.P,U1,24,GND*%
X207830000Y-109530000D03*
%TO.P,U1,25,GPIO19/USB_D-*%
%TO.N,unconnected-(U1-GPIO19{slash}USB_D--Pad25)*%
X207830000Y-106990000D03*
%TO.P,U1,26,GPIO20/USB_D+*%
%TO.N,unconnected-(U1-GPIO20{slash}USB_D+-Pad26)*%
X207830000Y-104450000D03*
%TO.P,U1,27,GPIO21*%
%TO.N,Touch_T_CS*%
X207830000Y-101910000D03*
%TO.P,U1,28,GPIO47*%
%TO.N,Touch_T_IRQ*%
X207830000Y-99370000D03*
%TO.P,U1,29,GPIO48*%
%TO.N,Disp_RESET*%
X207830000Y-96830000D03*
%TO.P,U1,30,GPIO45*%
%TO.N,TEMP UP*%
X207830000Y-94290000D03*
%TO.P,U1,31,GPIO0*%
%TO.N,unconnected-(U1-GPIO0-Pad31)*%
X207830000Y-91750000D03*
%TO.P,U1,32,GPIO35*%
%TO.N,unconnected-(U1-GPIO35-Pad32)*%
X207830000Y-89210000D03*
%TO.P,U1,33,GPIO36*%
%TO.N,unconnected-(U1-GPIO36-Pad33)*%
X207830000Y-86670000D03*
%TO.P,U1,34,GPIO37*%
%TO.N,unconnected-(U1-GPIO37-Pad34)*%
X207830000Y-84130000D03*
%TO.P,U1,35,GPIO38*%
%TO.N,TEMP DOWN*%
X207830000Y-81590000D03*
%TO.P,U1,36,GPIO39/MTCK*%
%TO.N,unconnected-(U1-GPIO39{slash}MTCK-Pad36)*%
X207830000Y-79050000D03*
%TO.P,U1,37,GPIO40/MTDO*%
%TO.N,SCL*%
X207830000Y-76510000D03*
%TO.P,U1,38,GPIO41/MTDI*%
%TO.N,unconnected-(U1-GPIO41{slash}MTDI-Pad38)*%
X207830000Y-73970000D03*
%TO.P,U1,39,GPIO42/MTMS*%
%TO.N,unconnected-(U1-GPIO42{slash}MTMS-Pad39)*%
X207830000Y-71430000D03*
%TO.P,U1,40,GPIO2/ADC1_CH1*%
%TO.N,MOSI_SDI*%
X207830000Y-68890000D03*
%TO.P,U1,41,GPIO1/ADC1_CH0*%
%TO.N,Disp_SCK+Touch_CLK*%
X207830000Y-66350000D03*
%TO.P,U1,42,GPIO44/U0RXD*%
%TO.N,unconnected-(U1-GPIO44{slash}U0RXD-Pad42)*%
X207830000Y-63810000D03*
%TO.P,U1,43,GPIO43/U0TXD*%
%TO.N,unconnected-(U1-GPIO43{slash}U0TXD-Pad43)*%
X207830000Y-61270000D03*
%TO.P,U1,44,GND*%
%TO.N,GND*%
X207830000Y-58730000D03*
%TD*%
D10*
%TO.P,R16,1*%
%TO.N,VCC*%
X151930000Y-97565000D03*
D11*
%TO.P,R16,2*%
%TO.N,Net-(D2-A)*%
X159550000Y-97565000D03*
%TD*%
D19*
%TO.P,J5,1,Pin_1*%
%TO.N,GND*%
X132090000Y-102300000D03*
D20*
%TO.P,J5,2,Pin_2*%
%TO.N,VCC*%
X132090000Y-99800000D03*
%TO.P,J5,3,Pin_3*%
%TO.N,Rotarty - SW*%
X132090000Y-97300000D03*
%TO.P,J5,4,Pin_4*%
%TO.N,Rotary pin_a*%
X132090000Y-94800000D03*
%TO.P,J5,5,Pin_5*%
%TO.N,Rotary pin_b*%
X132090000Y-92300000D03*
%TO.P,J5,6,Pin_6*%
%TO.N,unconnected-(J5-Pin_6-Pad6)*%
X132090000Y-89800000D03*
%TD*%
D21*
%TO.P,J1,1,Pin_1*%
%TO.N,GND*%
X218790000Y-68430000D03*
D22*
%TO.P,J1,2,Pin_2*%
%TO.N,VCC*%
X221290000Y-68430000D03*
%TO.P,J1,3,Pin_3*%
%TO.N,Disp_SCK+Touch_CLK*%
X223790000Y-68430000D03*
%TO.P,J1,4,Pin_4*%
%TO.N,CS_MAX6675*%
X226290000Y-68430000D03*
%TO.P,J1,5,Pin_5*%
%TO.N,MISO_SDO*%
X228790000Y-68430000D03*
%TO.P,J1,6,Pin_6*%
%TO.N,unconnected-(J1-Pin_6-Pad6)*%
X231290000Y-68430000D03*
%TD*%
D23*
%TO.P,J6,1,Pin_1*%
%TO.N,VCC*%
X125020000Y-89180000D03*
D24*
%TO.P,J6,2,Pin_2*%
%TO.N,GND*%
X125020000Y-91720000D03*
%TO.P,J6,3,Pin_3*%
%TO.N,SCL*%
X125020000Y-94260000D03*
%TO.P,J6,4,Pin_4*%
%TO.N,SDA*%
X125020000Y-96800000D03*
%TO.P,J6,5,Pin_5*%
%TO.N,VCC*%
X125020000Y-99340000D03*
%TO.P,J6,6,Pin_6*%
%TO.N,unconnected-(J6-Pin_6-Pad6)*%
X125020000Y-101880000D03*
%TO.P,J6,7,Pin_7*%
%TO.N,ADC1_A0*%
X125020000Y-104420000D03*
%TO.P,J6,8,Pin_8*%
%TO.N,ADC1_A1*%
X125020000Y-106960000D03*
%TO.P,J6,9,Pin_9*%
%TO.N,ADC1_A2*%
X125020000Y-109500000D03*
%TO.P,J6,10,Pin_10*%
%TO.N,ADC1_A3*%
X125020000Y-112040000D03*
%TD*%
D25*
%TO.P,K6,1*%
%TO.N,PWR*%
X118180000Y-80960000D03*
D26*
%TO.P,K6,2*%
%TO.N,IGN1*%
X125800000Y-80960000D03*
%TO.P,K6,3*%
%TO.N,VCC*%
X135960000Y-80960000D03*
%TO.P,K6,4*%
%TO.N,Net-(D7-K)*%
X138500000Y-80960000D03*
%TD*%
D27*
%TO.P,U$19,P$1*%
%TO.N,N/C*%
X236020000Y-105020100D03*
%TD*%
D10*
%TO.P,R4,1*%
%TO.N,GND*%
X141430000Y-102050000D03*
D11*
%TO.P,R4,2*%
%TO.N,ADC1_A0*%
X141430000Y-94430000D03*
%TD*%
D10*
%TO.P,R7,1*%
%TO.N,GND*%
X145020000Y-102090000D03*
D11*
%TO.P,R7,2*%
%TO.N,ADC1_A2*%
X145020000Y-94470000D03*
%TD*%
D28*
%TO.P,Q6,1,C*%
%TO.N,Net-(D7-K)*%
X170627000Y-101220000D03*
D29*
%TO.P,Q6,2,B*%
%TO.N,Net-(Q6-B)*%
X171897000Y-101220000D03*
%TO.P,Q6,3,E*%
%TO.N,GND*%
X173167000Y-101220000D03*
%TD*%
D15*
%TO.P,J9,1,Pin_1*%
%TO.N,Net-(J9-Pin_1)*%
X117880000Y-56490000D03*
D16*
%TO.P,J9,2,Pin_2*%
%TO.N,PWR-N*%
X122880000Y-56490000D03*
%TO.P,J9,3,Pin_3*%
X127880000Y-56490000D03*
%TO.P,J9,4,Pin_4*%
%TO.N,FAN*%
X132880000Y-56490000D03*
%TO.P,J9,5,Pin_5*%
%TO.N,AUG1*%
X137880000Y-56490000D03*
%TO.P,J9,6,Pin_6*%
%TO.N,IGN1*%
X142880000Y-56490000D03*
%TD*%
D27*
%TO.P,U$18,P$1*%
%TO.N,N/C*%
X236020000Y-84700100D03*
%TD*%
D25*
%TO.P,K3,1*%
%TO.N,PWR*%
X118290000Y-73120000D03*
D26*
%TO.P,K3,2*%
%TO.N,AUG1*%
X125910000Y-73120000D03*
%TO.P,K3,3*%
%TO.N,VCC*%
X136070000Y-73120000D03*
%TO.P,K3,4*%
%TO.N,Net-(D2-K)*%
X138610000Y-73120000D03*
%TD*%
D25*
%TO.P,K1,1*%
%TO.N,PWR*%
X118240000Y-65310000D03*
D26*
%TO.P,K1,2*%
%TO.N,FAN*%
X125860000Y-65310000D03*
%TO.P,K1,3*%
%TO.N,VCC*%
X136020000Y-65310000D03*
%TO.P,K1,4*%
%TO.N,Net-(D1-K)*%
X138560000Y-65310000D03*
%TD*%
D15*
%TO.P,J8,1,Pin_1*%
%TO.N,ADC1_A3*%
X171410000Y-110500000D03*
D16*
%TO.P,J8,2,Pin_2*%
%TO.N,VCC*%
X166410000Y-110500000D03*
%TO.P,J8,3,Pin_3*%
%TO.N,ADC1_A2*%
X161410000Y-110500000D03*
%TO.P,J8,4,Pin_4*%
%TO.N,VCC*%
X156410000Y-110500000D03*
%TD*%
D10*
%TO.P,R2,1*%
%TO.N,Net-(Q1-B)*%
X171700000Y-55740000D03*
D11*
%TO.P,R2,2*%
%TO.N,GND*%
X179320000Y-55740000D03*
%TD*%
D21*
%TO.P,Touch1,1,Pin_1*%
%TO.N,Touch_T_CS*%
X213480000Y-53640000D03*
D22*
%TO.P,Touch1,2,Pin_2*%
%TO.N,Touch_T_IRQ*%
X215980000Y-53640000D03*
%TO.P,Touch1,3,Pin_3*%
%TO.N,SDA*%
X218480000Y-53640000D03*
%TO.P,Touch1,4,Pin_4*%
%TO.N,Disp_RESET*%
X220980000Y-53640000D03*
%TO.P,Touch1,5,Pin_5*%
%TO.N,SCL*%
X223480000Y-53640000D03*
%TO.P,Touch1,6,Pin_6*%
%TO.N,MISO_SDO*%
X225980000Y-53640000D03*
%TD*%
D13*
%TO.P,D2,1,K*%
%TO.N,Net-(D2-K)*%
X142150000Y-74550000D03*
D14*
%TO.P,D2,2,A*%
%TO.N,Net-(D2-A)*%
X144690000Y-74550000D03*
%TD*%
D10*
%TO.P,R21,1*%
%TO.N,VCC*%
X151930000Y-101155000D03*
D11*
%TO.P,R21,2*%
%TO.N,Net-(D7-A)*%
X159550000Y-101155000D03*
%TD*%
D10*
%TO.P,R3,1*%
%TO.N,Net-(Q2-B)*%
X171700000Y-59790000D03*
D11*
%TO.P,R3,2*%
%TO.N,R_AUG1*%
X179320000Y-59790000D03*
%TD*%
D28*
%TO.P,Q2,1,C*%
%TO.N,Net-(D2-K)*%
X177017000Y-101260000D03*
D29*
%TO.P,Q2,2,B*%
%TO.N,Net-(Q2-B)*%
X178287000Y-101260000D03*
%TO.P,Q2,3,E*%
%TO.N,GND*%
X179557000Y-101260000D03*
%TD*%
D23*
%TO.P,J3,1,Pin_1*%
%TO.N,VCC*%
X214220000Y-86030000D03*
D24*
%TO.P,J3,2,Pin_2*%
%TO.N,GND*%
X214220000Y-88570000D03*
%TO.P,J3,3,Pin_3*%
%TO.N,unconnected-(J3-Pin_3-Pad3)*%
X214220000Y-91110000D03*
%TO.P,J3,4,Pin_4*%
%TO.N,Disp_SCK+Touch_CLK*%
X214220000Y-93650000D03*
%TO.P,J3,5,Pin_5*%
%TO.N,MISO_SDO*%
X214220000Y-96190000D03*
%TO.P,J3,6,Pin_6*%
%TO.N,MOSI_SDI*%
X214220000Y-98730000D03*
%TO.P,J3,7,Pin_7*%
%TO.N,MAX31865_CS*%
X214220000Y-101270000D03*
%TO.P,J3,8,Pin_8*%
%TO.N,unconnected-(J3-Pin_8-Pad8)*%
X214220000Y-103810000D03*
%TD*%
D30*
%TO.P,PS1,1,AC/L*%
%TO.N,PWR*%
X160460000Y-57060000D03*
D31*
%TO.P,PS1,2,AC/N*%
%TO.N,PWR-N*%
X155460000Y-57060000D03*
%TO.P,PS1,3,-Vout*%
%TO.N,GND*%
X165460000Y-86140000D03*
%TO.P,PS1,4,+Vout*%
%TO.N,VCC*%
X150460000Y-86140000D03*
%TD*%
D28*
%TO.P,Q1,1,C*%
%TO.N,Net-(D1-K)*%
X164887000Y-101110000D03*
D29*
%TO.P,Q1,2,B*%
%TO.N,Net-(Q1-B)*%
X166157000Y-101110000D03*
%TO.P,Q1,3,E*%
%TO.N,GND*%
X167427000Y-101110000D03*
%TD*%
D10*
%TO.P,R8,1*%
%TO.N,GND*%
X178010000Y-106030000D03*
D11*
%TO.P,R8,2*%
%TO.N,ADC1_A3*%
X178010000Y-113650000D03*
%TD*%
D13*
%TO.P,D9,1,K*%
%TO.N,GND*%
X172920000Y-84680000D03*
D14*
%TO.P,D9,2,A*%
%TO.N,Net-(D9-A)*%
X175460000Y-84680000D03*
%TD*%
D10*
%TO.P,R10,1*%
%TO.N,Net-(Q6-B)*%
X171760000Y-67480000D03*
D11*
%TO.P,R10,2*%
%TO.N,R_IGN1*%
X179380000Y-67480000D03*
%TD*%
D10*
%TO.P,R13,1*%
%TO.N,Net-(Q6-B)*%
X171880000Y-71170000D03*
D11*
%TO.P,R13,2*%
%TO.N,GND*%
X179500000Y-71170000D03*
%TD*%
D21*
%TO.P,Display1,1,Pin_1*%
%TO.N,VCC*%
X213710000Y-60480000D03*
D22*
%TO.P,Display1,2,Pin_2*%
%TO.N,Disp_SCK+Touch_CLK*%
X216210000Y-60480000D03*
%TO.P,Display1,3,Pin_3*%
%TO.N,MOSI_SDI*%
X218710000Y-60480000D03*
%TO.P,Display1,4,Pin_4*%
%TO.N,Disp_D{slash}C*%
X221210000Y-60480000D03*
%TO.P,Display1,5,Pin_5*%
%TO.N,Disp_RESET*%
X223710000Y-60480000D03*
%TO.P,Display1,6,Pin_6*%
%TO.N,Disp_CS*%
X226210000Y-60480000D03*
%TO.P,Display1,7,Pin_7*%
%TO.N,GND*%
X228710000Y-60480000D03*
%TO.P,Display1,8,Pin_8*%
%TO.N,VCC*%
X231210000Y-60480000D03*
%TD*%
D21*
%TO.P,J2,1,Pin_1*%
%TO.N,3V3*%
X216790000Y-111870000D03*
D22*
%TO.P,J2,2,Pin_2*%
%TO.N,GND*%
X219290000Y-111870000D03*
%TO.P,J2,3,Pin_3*%
%TO.N,SCL*%
X221790000Y-111870000D03*
%TO.P,J2,4,Pin_4*%
%TO.N,SDA*%
X224290000Y-111870000D03*
%TD*%
D10*
%TO.P,R15,1*%
%TO.N,VCC*%
X151930000Y-93975000D03*
D11*
%TO.P,R15,2*%
%TO.N,Net-(D1-A)*%
X159550000Y-93975000D03*
%TD*%
D10*
%TO.P,R1,1*%
%TO.N,Net-(Q1-B)*%
X171930000Y-79190000D03*
D11*
%TO.P,R1,2*%
%TO.N,R_FANS*%
X179550000Y-79190000D03*
%TD*%
D10*
%TO.P,R5,1*%
%TO.N,GND*%
X148610000Y-102060000D03*
D11*
%TO.P,R5,2*%
%TO.N,ADC1_A1*%
X148610000Y-94440000D03*
%TD*%
D21*
%TO.P,J10,1,Pin_1*%
%TO.N,VCC*%
X218910000Y-76890000D03*
D22*
%TO.P,J10,2,Pin_2*%
%TO.N,GND*%
X221410000Y-76890000D03*
%TO.P,J10,3,Pin_3*%
%TO.N,TEMP DOWN*%
X223910000Y-76890000D03*
%TO.P,J10,4,Pin_4*%
%TO.N,TEMP UP*%
X226410000Y-76890000D03*
%TO.P,J10,5,Pin_5*%
%TO.N,SMOKE SW*%
X228910000Y-76890000D03*
%TO.P,J10,6,Pin_6*%
%TO.N,POWER SW*%
X231410000Y-76890000D03*
%TD*%
D32*
%TO.P,C1,1*%
%TO.N,VCC*%
X172657300Y-91870000D03*
D10*
%TO.P,C1,2*%
%TO.N,GND*%
X176157300Y-91870000D03*
%TD*%
D33*
%TO.N,GND*%
X212607000Y-95410700D03*
X176254000Y-75635300D03*
%TO.N,Net-(D2-K)*%
X155481000Y-90636800D03*
X161568000Y-99374700D03*
%TO.N,SMOKE SW*%
X193178000Y-89714600D03*
%TO.N,Disp_RESET*%
X205396000Y-64898400D03*
%TO.N,MAX31865_CS*%
X199309000Y-93103000D03*
%TD*%
D34*
%TO.N,PWR*%
X122670000Y-60980000D02*
X118290000Y-65360000D01*
D35*
X118180000Y-73230000D02*
X118290000Y-73120000D01*
D34*
X160460000Y-57060000D02*
X156540000Y-60980000D01*
D35*
X118290000Y-65360000D02*
X118290000Y-72144000D01*
D36*
X113118000Y-72632000D02*
X112810000Y-72940000D01*
X112810000Y-70899000D02*
X112810000Y-69534000D01*
X117802000Y-72632000D02*
X118290000Y-73120000D01*
D35*
X112780000Y-72632000D02*
X117802000Y-72632000D01*
X118180000Y-80960000D02*
X118180000Y-73230000D01*
X118290000Y-65360000D02*
X118240000Y-65310000D01*
X112780000Y-69226000D02*
X112780000Y-72632000D01*
D36*
X112780000Y-70929000D02*
X112810000Y-70899000D01*
D35*
X118290000Y-72144000D02*
X117802000Y-72632000D01*
D34*
X156540000Y-60980000D02*
X122670000Y-60980000D01*
D36*
%TO.N,GND*%
X218138300Y-111870000D02*
X218138300Y-111102600D01*
X215372500Y-109138300D02*
X215372500Y-98229500D01*
X179500000Y-71170000D02*
X179500000Y-70068300D01*
X179300000Y-63690000D02*
X179300000Y-64791700D01*
X215372500Y-98229500D02*
X214603000Y-97460000D01*
X207830000Y-112070000D02*
X207179200Y-112070000D01*
X176254000Y-75635300D02*
X176254000Y-80144300D01*
X213836400Y-97460000D02*
X212607000Y-96230600D01*
X214603000Y-97460000D02*
X213836400Y-97460000D01*
X182926300Y-112077300D02*
X206521000Y-112077300D01*
X207830000Y-109530000D02*
X206528300Y-109530000D01*
X167840400Y-101110000D02*
X166666500Y-102283900D01*
X145020000Y-102067500D02*
X141447500Y-102067500D01*
X176254000Y-80144300D02*
X172920000Y-83478300D01*
X167840400Y-101110000D02*
X168253700Y-101110000D01*
X172920000Y-84680000D02*
X171718300Y-84680000D01*
X170258300Y-86140000D02*
X171718300Y-84680000D01*
X145027500Y-102060000D02*
X145020000Y-102067500D01*
X148610000Y-102060000D02*
X145027500Y-102060000D01*
X209523400Y-109138300D02*
X209131700Y-109530000D01*
X206528300Y-109903500D02*
X206528300Y-109530000D01*
X168253700Y-101110000D02*
X169195400Y-100168300D01*
X212607000Y-96230600D02*
X212607000Y-95410700D01*
X132090000Y-102300000D02*
X141180000Y-102300000D01*
X148833900Y-102283900D02*
X148610000Y-102060000D01*
X172920000Y-84680000D02*
X172920000Y-83478300D01*
X180483700Y-65975400D02*
X179300000Y-64791700D01*
X207179100Y-110554300D02*
X206528300Y-109903500D01*
X141180000Y-102300000D02*
X141430000Y-102050000D01*
X141447500Y-102067500D02*
X141430000Y-102050000D01*
X218138300Y-111102600D02*
X216174000Y-109138300D01*
X207179200Y-112070000D02*
X207179200Y-110554300D01*
X165460000Y-86140000D02*
X170258300Y-86140000D01*
X206521000Y-112077300D02*
X206528300Y-112070000D01*
X207179200Y-110554300D02*
X207179100Y-110554300D01*
X221410000Y-76890000D02*
X220258300Y-76890000D01*
X179500000Y-70068300D02*
X180483700Y-69084600D01*
X215372500Y-109138300D02*
X209523400Y-109138300D01*
X166666500Y-102283900D02*
X148833900Y-102283900D01*
X218790000Y-68430000D02*
X220258300Y-69898300D01*
X216174000Y-109138300D02*
X215372500Y-109138300D01*
X207179200Y-112070000D02*
X206528300Y-112070000D01*
X173167000Y-101220000D02*
X173167000Y-100168300D01*
X145020000Y-102067500D02*
X145020000Y-102090000D01*
X169195400Y-100168300D02*
X173167000Y-100168300D01*
X219290000Y-111870000D02*
X218138300Y-111870000D01*
X220258300Y-69898300D02*
X220258300Y-76890000D01*
X167427000Y-101110000D02*
X167840400Y-101110000D01*
X207830000Y-109530000D02*
X209131700Y-109530000D01*
X180483700Y-69084600D02*
X180483700Y-65975400D01*
%TO.N,Net-(Q1-B)*%
X170576500Y-77836500D02*
X170576500Y-56863500D01*
X171930000Y-79190000D02*
X170576500Y-77836500D01*
X170576500Y-56863500D02*
X171700000Y-55740000D01*
%TO.N,Net-(Q2-B)*%
X171680000Y-63690000D02*
X171700000Y-63670000D01*
X171700000Y-63670000D02*
X171700000Y-59790000D01*
%TO.N,ADC1_A3*%
X168220900Y-112137400D02*
X126269100Y-112137400D01*
X125020000Y-112040000D02*
X126171700Y-112040000D01*
X126269100Y-112137400D02*
X126171700Y-112040000D01*
X169858300Y-110500000D02*
X168220900Y-112137400D01*
X171410000Y-110500000D02*
X169858300Y-110500000D01*
%TO.N,Net-(D2-K)*%
X177017000Y-101260000D02*
X176190300Y-101260000D01*
X174305000Y-99374700D02*
X176190300Y-101260000D01*
X161568000Y-99374700D02*
X174305000Y-99374700D01*
%TO.N,ADC1_A1*%
X148358300Y-110440000D02*
X144878300Y-106960000D01*
X149910000Y-110440000D02*
X148358300Y-110440000D01*
X144878300Y-106960000D02*
X125020000Y-106960000D01*
%TO.N,CS_MAX6675*%
X220746400Y-69729200D02*
X220130500Y-69113300D01*
X208519900Y-70160000D02*
X203484900Y-70160000D01*
X197124900Y-76520000D02*
X184231700Y-76520000D01*
X203484900Y-70160000D02*
X197124900Y-76520000D01*
X226290000Y-68430000D02*
X225138300Y-68430000D01*
X211548100Y-67131800D02*
X208519900Y-70160000D01*
X219683100Y-67131800D02*
X211548100Y-67131800D01*
X220130500Y-67579200D02*
X219683100Y-67131800D01*
X220130500Y-69113300D02*
X220130500Y-67579200D01*
X182930000Y-76520000D02*
X184231700Y-76520000D01*
X225138300Y-68430000D02*
X225138300Y-68861900D01*
X224271000Y-69729200D02*
X220746400Y-69729200D01*
X225138300Y-68861900D02*
X224271000Y-69729200D01*
%TO.N,MISO_SDO*%
X225980000Y-53640000D02*
X224828300Y-53640000D01*
X182930000Y-66360000D02*
X184231700Y-66360000D01*
X190636600Y-59955100D02*
X184231700Y-66360000D01*
X210280000Y-58239900D02*
X208564800Y-59955100D01*
X208564800Y-59955100D02*
X190636600Y-59955100D01*
X220660300Y-58239900D02*
X210280000Y-58239900D01*
X224828300Y-54071900D02*
X220660300Y-58239900D01*
X224828300Y-53640000D02*
X224828300Y-54071900D01*
%TO.N,TEMP DOWN*%
X218483900Y-81590000D02*
X209131700Y-81590000D01*
X222758300Y-76890000D02*
X222758300Y-77315600D01*
X207830000Y-81590000D02*
X209131700Y-81590000D01*
X222758300Y-77315600D02*
X218483900Y-81590000D01*
X223910000Y-76890000D02*
X222758300Y-76890000D01*
%TO.N,POWER SW*%
X225160000Y-77436500D02*
X219878100Y-82718400D01*
X192175600Y-88896100D02*
X184231700Y-96840000D01*
X225948100Y-75595200D02*
X225160000Y-76383300D01*
X230258300Y-76458100D02*
X229395400Y-75595200D01*
X231410000Y-76890000D02*
X230258300Y-76890000D01*
X225160000Y-76383300D02*
X225160000Y-77436500D01*
X229395400Y-75595200D02*
X225948100Y-75595200D01*
X219878100Y-82718400D02*
X207081600Y-82718400D01*
X200903900Y-88896100D02*
X192175600Y-88896100D01*
X230258300Y-76890000D02*
X230258300Y-76458100D01*
X182930000Y-96840000D02*
X184231700Y-96840000D01*
X207081600Y-82718400D02*
X200903900Y-88896100D01*
%TO.N,SMOKE SW*%
X205262400Y-95266300D02*
X209649000Y-95266300D01*
X193178000Y-89714600D02*
X193178000Y-92476800D01*
X209649000Y-95266300D02*
X212535300Y-92380000D01*
X202472900Y-92476800D02*
X205262400Y-95266300D01*
X182926300Y-106997300D02*
X184228000Y-106997300D01*
X193178000Y-98047300D02*
X184228000Y-106997300D01*
X212535300Y-92380000D02*
X214696700Y-92380000D01*
X193178000Y-92476800D02*
X202472900Y-92476800D01*
X193178000Y-92476800D02*
X193178000Y-98047300D01*
X228910000Y-76890000D02*
X228910000Y-78166700D01*
X214696700Y-92380000D02*
X228910000Y-78166700D01*
%TO.N,TEMP UP*%
X214666700Y-89910000D02*
X213511700Y-89910000D01*
X207830000Y-94290000D02*
X209131700Y-94290000D01*
X213511700Y-89910000D02*
X209131700Y-94290000D01*
X226410000Y-78166700D02*
X214666700Y-89910000D01*
X226410000Y-76890000D02*
X226410000Y-78166700D01*
%TO.N,SDA*%
X220481400Y-52358400D02*
X226484800Y-52358400D01*
X127831600Y-98459900D02*
X126171700Y-96800000D01*
X179780000Y-96148300D02*
X149640600Y-96148300D01*
X182930000Y-94300000D02*
X181628300Y-94300000D01*
X232576800Y-58450400D02*
X232576800Y-104734900D01*
X224290000Y-111870000D02*
X225441700Y-111870000D01*
X125020000Y-96800000D02*
X126171700Y-96800000D01*
X149640600Y-96148300D02*
X147329000Y-98459900D01*
X226484800Y-52358400D02*
X232576800Y-58450400D01*
X219631700Y-53208100D02*
X220481400Y-52358400D01*
X232576800Y-104734900D02*
X225441700Y-111870000D01*
X219631700Y-53640000D02*
X219631700Y-53208100D01*
X181628300Y-94300000D02*
X179780000Y-96148300D01*
X147329000Y-98459900D02*
X127831600Y-98459900D01*
X218480000Y-53640000D02*
X219631700Y-53640000D01*
%TO.N,SCL*%
X207830000Y-76510000D02*
X206528300Y-76510000D01*
X174848300Y-87291700D02*
X132782000Y-87291700D01*
X200168300Y-82870000D02*
X179270000Y-82870000D01*
X179270000Y-82870000D02*
X174848300Y-87291700D01*
X126171700Y-93902000D02*
X126171700Y-94260000D01*
X132782000Y-87291700D02*
X126171700Y-93902000D01*
X206528300Y-76510000D02*
X200168300Y-82870000D01*
X125020000Y-94260000D02*
X126171700Y-94260000D01*
%TO.N,Disp_SCK+Touch_CLK*%
X223790000Y-68430000D02*
X222638300Y-68430000D01*
X222638300Y-67998100D02*
X220990200Y-66350000D01*
X220990200Y-66350000D02*
X207830000Y-66350000D01*
X222638300Y-68430000D02*
X222638300Y-67998100D01*
%TO.N,Disp_D{slash}C*%
X221210000Y-60480000D02*
X220058300Y-60480000D01*
X218303700Y-62666500D02*
X220058300Y-60911900D01*
X190465200Y-62666500D02*
X218303700Y-62666500D01*
X220058300Y-60911900D02*
X220058300Y-60480000D01*
X182930000Y-68900000D02*
X184231700Y-68900000D01*
X184231700Y-68900000D02*
X190465200Y-62666500D01*
%TO.N,Disp_CS*%
X182930000Y-73980000D02*
X184231700Y-73980000D01*
X225058300Y-60911900D02*
X220596000Y-65374200D01*
X205771200Y-65374200D02*
X197165400Y-73980000D01*
X220596000Y-65374200D02*
X205771200Y-65374200D01*
X225058300Y-60480000D02*
X225058300Y-60911900D01*
X197165400Y-73980000D02*
X184231700Y-73980000D01*
X226210000Y-60480000D02*
X225058300Y-60480000D01*
%TO.N,Disp_RESET*%
X222558300Y-60931700D02*
X218591600Y-64898400D01*
X218591600Y-64898400D02*
X205396000Y-64898400D01*
X205396000Y-64898400D02*
X190773300Y-64898400D01*
X182930000Y-71440000D02*
X184231700Y-71440000D01*
X222558300Y-60480000D02*
X222558300Y-60931700D01*
X190773300Y-64898400D02*
X184231700Y-71440000D01*
X223710000Y-60480000D02*
X222558300Y-60480000D01*
%TO.N,MAX31865_CS*%
X214220000Y-101270000D02*
X213068300Y-101270000D01*
X199309000Y-93103000D02*
X206998800Y-100792800D01*
X212591100Y-100792800D02*
X213068300Y-101270000D01*
X206998800Y-100792800D02*
X212591100Y-100792800D01*
%TO.N,VCC*%
X231210000Y-60480000D02*
X230058300Y-60480000D01*
X229212800Y-59202600D02*
X214987400Y-59202600D01*
X150460000Y-84988300D02*
X167726200Y-84988300D01*
X151930000Y-93975000D02*
X154035000Y-91870000D01*
X218910000Y-76890000D02*
X217574000Y-75554000D01*
X136469700Y-108880300D02*
X143350300Y-108880300D01*
X134910000Y-110440000D02*
X136469700Y-108880300D01*
X217574000Y-75554000D02*
X200459600Y-75554000D01*
X214987400Y-59202600D02*
X213710000Y-60480000D01*
X176027700Y-75003700D02*
X179513700Y-75003700D01*
X174728200Y-76303200D02*
X176027700Y-75003700D01*
X230058300Y-60480000D02*
X230058300Y-60048100D01*
X181035600Y-108948300D02*
X181624600Y-109537300D01*
X230058300Y-60048100D02*
X229212800Y-59202600D01*
X157961700Y-108948300D02*
X156410000Y-110500000D01*
X150460000Y-86140000D02*
X150460000Y-84988300D01*
X125020000Y-99340000D02*
X126171700Y-99340000D01*
X200459600Y-75554000D02*
X198588800Y-77424800D01*
X182926300Y-109537300D02*
X181624600Y-109537300D01*
X154035000Y-91870000D02*
X172657300Y-91870000D01*
X143350300Y-108880300D02*
X144910000Y-110440000D01*
X167961700Y-108948300D02*
X181035600Y-108948300D01*
X181934800Y-77424800D02*
X179630000Y-75120000D01*
X167726200Y-84988300D02*
X174728200Y-77986300D01*
X126631700Y-99800000D02*
X126171700Y-99340000D01*
X198588800Y-77424800D02*
X181934800Y-77424800D01*
X164858300Y-108948300D02*
X157961700Y-108948300D01*
X132090000Y-99800000D02*
X126631700Y-99800000D01*
X174728200Y-77986300D02*
X174728200Y-76303200D01*
X179513700Y-75003700D02*
X179630000Y-75120000D01*
X166410000Y-110500000D02*
X167961700Y-108948300D01*
X166410000Y-110500000D02*
X164858300Y-108948300D01*
D35*
%TO.N,Net-(J9-Pin_1)*%
X117880000Y-56490000D02*
X117640000Y-56490000D01*
X112780000Y-62627200D02*
X112780000Y-63904500D01*
D36*
X112810000Y-63934500D02*
X112810000Y-65064000D01*
D35*
X112780000Y-63904500D02*
X112780000Y-64756000D01*
D36*
X112780000Y-62627200D02*
X112810000Y-62597200D01*
X112810000Y-62597200D02*
X112810000Y-61658000D01*
X112780000Y-63904500D02*
X112810000Y-63934500D01*
D35*
X112780000Y-61350000D02*
X112780000Y-62627200D01*
X117640000Y-56490000D02*
X112780000Y-61350000D01*
X112780000Y-61350000D02*
X112780000Y-64756000D01*
%TO.N,PWR-N*%
X127880000Y-56490000D02*
X122880000Y-56490000D01*
X127880000Y-56490000D02*
X130260000Y-54110000D01*
X152000000Y-53600000D02*
X155460000Y-57060000D01*
X130260000Y-53600000D02*
X152000000Y-53600000D01*
X130260000Y-54110000D02*
X130260000Y-53600000D01*
D36*
%TO.N,Net-(D7-K)*%
X142260000Y-82250000D02*
X141058300Y-82250000D01*
X138500000Y-80960000D02*
X139768300Y-80960000D01*
X139768300Y-80960000D02*
X141058300Y-82250000D01*
%TO.N,Rotarty - SW*%
X143104000Y-89220000D02*
X136175700Y-96148300D01*
X136175700Y-96148300D02*
X132090000Y-96148300D01*
X181628300Y-89220000D02*
X143104000Y-89220000D01*
X132090000Y-97300000D02*
X132090000Y-96148300D01*
X182930000Y-89220000D02*
X181628300Y-89220000D01*
%TO.N,Rotary pin_b*%
X180154800Y-88153500D02*
X139084900Y-88153500D01*
X136090100Y-91148300D02*
X132090000Y-91148300D01*
X181628300Y-86680000D02*
X180154800Y-88153500D01*
X182930000Y-86680000D02*
X181628300Y-86680000D01*
X132090000Y-92300000D02*
X132090000Y-91148300D01*
X139084900Y-88153500D02*
X136090100Y-91148300D01*
%TO.N,Rotary pin_a*%
X132090000Y-94800000D02*
X133366700Y-94800000D01*
X183363100Y-87950000D02*
X184231700Y-87081400D01*
X184231700Y-87081400D02*
X184231700Y-84140000D01*
X133366700Y-94800000D02*
X139596700Y-88570000D01*
X181779800Y-88570000D02*
X182399800Y-87950000D01*
X182399800Y-87950000D02*
X183363100Y-87950000D01*
X139596700Y-88570000D02*
X181779800Y-88570000D01*
X182930000Y-84140000D02*
X184231700Y-84140000D01*
%TD*%
M02*
