M48
; DRILL file {KiCad 8.0.8} date 2026-01-05T18:13:44-0700
; FORMAT={-:-/ absolute / metric / decimal}
; #@! TF.CreationDate,2026-01-05T18:13:44-07:00
; #@! TF.GenerationSoftware,Kicad,Pcbnew,8.0.8
; #@! TF.FileFunction,MixedPlating,1,2
FMAT,2
METRIC
; #@! TA.AperFunction,Plated,PTH,ViaDrill
T1C0.300
; #@! TA.AperFunction,Plated,PTH,ComponentDrill
T2C0.750
; #@! TA.AperFunction,Plated,PTH,ComponentDrill
T3C0.800
; #@! TA.AperFunction,Plated,PTH,ComponentDrill
T4C0.900
; #@! TA.AperFunction,Plated,PTH,ComponentDrill
T5C0.950
; #@! TA.AperFunction,Plated,PTH,ComponentDrill
T6C1.000
; #@! TA.AperFunction,Plated,PTH,ComponentDrill
T7C1.300
; #@! TA.AperFunction,Plated,PTH,ComponentDrill
T8C1.651
; #@! TA.AperFunction,Plated,PTH,ComponentDrill
T9C2.500
; #@! TA.AperFunction,NonPlated,NPTH,ComponentDrill
T10C3.200
%
G90
G05
T1
X155.481Y-90.637
X161.568Y-99.375
X176.254Y-75.635
X193.178Y-89.715
X199.309Y-93.103
X205.396Y-64.898
X212.607Y-95.411
T2
X164.887Y-101.11
X166.157Y-101.11
X167.427Y-101.11
X170.627Y-101.22
X171.897Y-101.22
X173.167Y-101.22
X177.017Y-101.26
X178.287Y-101.26
X179.557Y-101.26
T3
X141.43Y-94.43
X141.43Y-102.05
X145.02Y-94.47
X145.02Y-102.09
X148.61Y-94.44
X148.61Y-102.06
X151.93Y-93.975
X151.93Y-97.565
X151.93Y-101.155
X159.55Y-93.975
X159.55Y-97.565
X159.55Y-101.155
X171.68Y-63.69
X171.7Y-55.74
X171.7Y-59.79
X171.76Y-67.48
X171.88Y-71.17
X171.93Y-79.19
X172.01Y-75.12
X172.657Y-91.87
X176.157Y-91.87
X178.01Y-106.03
X178.01Y-113.65
X179.3Y-63.69
X179.32Y-55.74
X179.32Y-59.79
X179.38Y-67.48
X179.5Y-71.17
X179.55Y-79.19
X179.63Y-75.12
X182.926Y-106.997
X182.926Y-109.537
X182.926Y-112.077
X182.93Y-58.74
X182.93Y-61.28
X182.93Y-63.82
X182.93Y-66.36
X182.93Y-68.9
X182.93Y-71.44
X182.93Y-73.98
X182.93Y-76.52
X182.93Y-79.06
X182.93Y-81.6
X182.93Y-84.14
X182.93Y-86.68
X182.93Y-89.22
X182.93Y-91.76
X182.93Y-94.3
X182.93Y-96.84
X182.93Y-99.38
X182.93Y-101.92
X182.93Y-104.46
X207.83Y-58.73
X207.83Y-61.27
X207.83Y-63.81
X207.83Y-66.35
X207.83Y-68.89
X207.83Y-71.43
X207.83Y-73.97
X207.83Y-76.51
X207.83Y-79.05
X207.83Y-81.59
X207.83Y-84.13
X207.83Y-86.67
X207.83Y-89.21
X207.83Y-91.75
X207.83Y-94.29
X207.83Y-96.83
X207.83Y-99.37
X207.83Y-101.91
X207.83Y-104.45
X207.83Y-106.99
X207.83Y-109.53
X207.83Y-112.07
T4
X142.15Y-74.55
X142.26Y-82.25
X142.28Y-67.57
X144.69Y-74.55
X144.8Y-82.25
X144.82Y-67.57
X172.92Y-84.68
X175.46Y-84.68
T5
X132.09Y-89.8
X132.09Y-92.3
X132.09Y-94.8
X132.09Y-97.3
X132.09Y-99.8
X132.09Y-102.3
X213.48Y-53.64
X213.71Y-60.48
X215.98Y-53.64
X216.21Y-60.48
X216.79Y-111.87
X218.48Y-53.64
X218.71Y-60.48
X218.79Y-68.43
X218.91Y-76.89
X219.29Y-111.87
X220.98Y-53.64
X221.21Y-60.48
X221.29Y-68.43
X221.41Y-76.89
X221.79Y-111.87
X223.48Y-53.64
X223.71Y-60.48
X223.79Y-68.43
X223.91Y-76.89
X224.29Y-111.87
X225.98Y-53.64
X226.21Y-60.48
X226.29Y-68.43
X226.41Y-76.89
X228.71Y-60.48
X228.79Y-68.43
X228.91Y-76.89
X231.21Y-60.48
X231.29Y-68.43
X231.41Y-76.89
T6
X118.18Y-80.96
X118.24Y-65.31
X118.29Y-73.12
X125.02Y-89.18
X125.02Y-91.72
X125.02Y-94.26
X125.02Y-96.8
X125.02Y-99.34
X125.02Y-101.88
X125.02Y-104.42
X125.02Y-106.96
X125.02Y-109.5
X125.02Y-112.04
X125.8Y-80.96
X125.86Y-65.31
X125.91Y-73.12
X135.96Y-80.96
X136.02Y-65.31
X136.07Y-73.12
X138.5Y-80.96
X138.56Y-65.31
X138.61Y-73.12
X150.46Y-86.14
X155.46Y-57.06
X160.46Y-57.06
X165.46Y-86.14
X214.22Y-86.03
X214.22Y-88.57
X214.22Y-91.11
X214.22Y-93.65
X214.22Y-96.19
X214.22Y-98.73
X214.22Y-101.27
X214.22Y-103.81
T7
X117.88Y-56.49
X122.88Y-56.49
X127.88Y-56.49
X132.88Y-56.49
X134.91Y-110.44
X137.88Y-56.49
X139.91Y-110.44
X142.88Y-56.49
X144.91Y-110.44
X149.91Y-110.44
X156.41Y-110.5
X161.41Y-110.5
X166.41Y-110.5
X171.41Y-110.5
T8
X112.81Y-61.658
X112.81Y-65.064
X112.81Y-69.534
X112.81Y-72.94
T9
X236.02Y-84.7
X236.02Y-105.02
T10
X112.87Y-55.05
X113.12Y-111.64
X236.31Y-54.52
X236.64Y-111.53
M30
