%TF.GenerationSoftware,KiCad,Pcbnew,8.0.8*%
%TF.CreationDate,2026-01-05T18:13:39-07:00*%
%TF.ProjectId,Traeger rev 2.3.0.kicad_pro,54726165-6765-4722-9072-657620322e33,rev?*%
%TF.SameCoordinates,Original*%
%TF.FileFunction,Soldermask,Top*%
%TF.FilePolarity,Negative*%
%FSLAX46Y46*%
G04 Gerber Fmt 4.6, Leading zero omitted, Abs format (unit mm)*
G04 Created by KiCad (PCBNEW 8.0.8) date 2026-01-05 18:13:39*
%MOMM*%
%LPD*%
G01*
G04 APERTURE LIST*
G04 Aperture macros list*
%AMRoundRect*
0 Rectangle with rounded corners*
0 $1 Rounding radius*
0 $2 $3 $4 $5 $6 $7 $8 $9 X,Y pos of 4 corners*
0 Add a 4 corners polygon primitive as box body*
4,1,4,$2,$3,$4,$5,$6,$7,$8,$9,$2,$3,0*
0 Add four circle primitives for the rounded corners*
1,1,$1+$1,$2,$3*
1,1,$1+$1,$4,$5*
1,1,$1+$1,$6,$7*
1,1,$1+$1,$8,$9*
0 Add four rect primitives between the rounded corners*
20,1,$1+$1,$2,$3,$4,$5,0*
20,1,$1+$1,$4,$5,$6,$7,0*
20,1,$1+$1,$6,$7,$8,$9,0*
20,1,$1+$1,$8,$9,$2,$3,0*%
G04 Aperture macros list end*
%ADD10C,1.600000*%
%ADD11O,1.600000X1.600000*%
%ADD12C,3.200000*%
%ADD13C,2.159000*%
%ADD14R,1.800000X1.800000*%
%ADD15C,1.800000*%
%ADD16R,2.500000X2.500000*%
%ADD17C,2.500000*%
%ADD18R,2.000000X1.200000*%
%ADD19O,2.000000X1.200000*%
%ADD20RoundRect,0.250000X0.725000X-0.600000X0.725000X0.600000X-0.725000X0.600000X-0.725000X-0.600000X0*%
%ADD21O,1.950000X1.700000*%
%ADD22RoundRect,0.250000X-0.600000X-0.725000X0.600000X-0.725000X0.600000X0.725000X-0.600000X0.725000X0*%
%ADD23O,1.700000X1.950000*%
%ADD24R,1.700000X1.700000*%
%ADD25O,1.700000X1.700000*%
%ADD26RoundRect,0.102000X-0.754000X-0.754000X0.754000X-0.754000X0.754000X0.754000X-0.754000X0.754000X0*%
%ADD27C,1.712000*%
%ADD28C,3.301600*%
%ADD29R,1.050000X1.500000*%
%ADD30O,1.050000X1.500000*%
%ADD31R,2.000000X1.700000*%
%ADD32O,2.000000X1.700000*%
%ADD33R,1.600000X1.600000*%
G04 APERTURE END LIST*
D10*
%TO.C,R6*%
X171680000Y-63690000D03*
D11*
X179300000Y-63690000D03*
%TD*%
D12*
%TO.C,H2*%
X113120000Y-111640000D03*
%TD*%
D13*
%TO.C,F1*%
X112810000Y-61658000D03*
X112810000Y-65064001D03*
X112810000Y-69534002D03*
X112810000Y-72940004D03*
%TD*%
D14*
%TO.C,D7*%
X142260000Y-82250000D03*
D15*
X144800000Y-82250000D03*
%TD*%
D14*
%TO.C,D1*%
X142280000Y-67570000D03*
D15*
X144820000Y-67570000D03*
%TD*%
D10*
%TO.C,R23*%
X179630000Y-75120000D03*
D11*
X172010000Y-75120000D03*
%TD*%
D16*
%TO.C,J7*%
X149910000Y-110440000D03*
D17*
X144910000Y-110440000D03*
X139910000Y-110440000D03*
X134910000Y-110440000D03*
%TD*%
D18*
%TO.C,U1*%
X182930000Y-58740000D03*
D19*
X182930000Y-61280000D03*
X182930000Y-63820000D03*
X182930000Y-66360000D03*
X182930000Y-68900000D03*
X182930000Y-71440000D03*
X182930000Y-73980000D03*
X182930000Y-76520000D03*
X182930000Y-79060000D03*
X182930000Y-81600000D03*
X182930000Y-84140000D03*
X182930000Y-86680000D03*
X182930000Y-89220000D03*
X182930000Y-91760000D03*
X182930000Y-94300000D03*
X182930000Y-96840000D03*
X182930000Y-99380000D03*
X182930000Y-101920000D03*
X182930000Y-104460000D03*
X182926320Y-106997280D03*
X182926320Y-109537280D03*
X182926320Y-112077280D03*
X207830000Y-112070000D03*
X207830000Y-109530000D03*
X207830000Y-106990000D03*
X207830000Y-104450000D03*
X207830000Y-101910000D03*
X207830000Y-99370000D03*
X207830000Y-96830000D03*
X207830000Y-94290000D03*
X207830000Y-91750000D03*
X207830000Y-89210000D03*
X207830000Y-86670000D03*
X207830000Y-84130000D03*
X207830000Y-81590000D03*
X207830000Y-79050000D03*
X207830000Y-76510000D03*
X207830000Y-73970000D03*
X207830000Y-71430000D03*
X207830000Y-68890000D03*
X207830000Y-66350000D03*
X207830000Y-63810000D03*
X207830000Y-61270000D03*
X207830000Y-58730000D03*
%TD*%
D10*
%TO.C,R16*%
X151930000Y-97565000D03*
D11*
X159550000Y-97565000D03*
%TD*%
D20*
%TO.C,J5*%
X132090000Y-102300000D03*
D21*
X132090000Y-99800000D03*
X132090000Y-97300000D03*
X132090000Y-94800000D03*
X132090000Y-92300000D03*
X132090000Y-89800000D03*
%TD*%
D22*
%TO.C,J1*%
X218790000Y-68430000D03*
D23*
X221290000Y-68430000D03*
X223790000Y-68430000D03*
X226290000Y-68430000D03*
X228790000Y-68430000D03*
X231290000Y-68430000D03*
%TD*%
D24*
%TO.C,J6*%
X125020000Y-89180000D03*
D25*
X125020000Y-91720000D03*
X125020000Y-94260000D03*
X125020000Y-96800000D03*
X125020000Y-99340000D03*
X125020000Y-101880000D03*
X125020000Y-104420000D03*
X125020000Y-106960000D03*
X125020000Y-109500000D03*
X125020000Y-112040000D03*
%TD*%
D26*
%TO.C,K6*%
X118180000Y-80960000D03*
D27*
X125800000Y-80960000D03*
X135960000Y-80960000D03*
X138500000Y-80960000D03*
%TD*%
D28*
%TO.C,U$19*%
X236020000Y-105020100D03*
%TD*%
D10*
%TO.C,R4*%
X141430000Y-102050000D03*
D11*
X141430000Y-94430000D03*
%TD*%
D10*
%TO.C,R7*%
X145020000Y-102090000D03*
D11*
X145020000Y-94470000D03*
%TD*%
D29*
%TO.C,Q6*%
X170627000Y-101220000D03*
D30*
X171897000Y-101220000D03*
X173167000Y-101220000D03*
%TD*%
D16*
%TO.C,J9*%
X117880000Y-56490000D03*
D17*
X122880000Y-56490000D03*
X127880000Y-56490000D03*
X132880000Y-56490000D03*
X137880000Y-56490000D03*
X142880000Y-56490000D03*
%TD*%
D28*
%TO.C,U$18*%
X236020000Y-84700100D03*
%TD*%
D26*
%TO.C,K3*%
X118290000Y-73120000D03*
D27*
X125910000Y-73120000D03*
X136070000Y-73120000D03*
X138610000Y-73120000D03*
%TD*%
D26*
%TO.C,K1*%
X118240000Y-65310000D03*
D27*
X125860000Y-65310000D03*
X136020000Y-65310000D03*
X138560000Y-65310000D03*
%TD*%
D16*
%TO.C,J8*%
X171410000Y-110500000D03*
D17*
X166410000Y-110500000D03*
X161410000Y-110500000D03*
X156410000Y-110500000D03*
%TD*%
D10*
%TO.C,R2*%
X171700000Y-55740000D03*
D11*
X179320000Y-55740000D03*
%TD*%
D22*
%TO.C,Touch1*%
X213480000Y-53640000D03*
D23*
X215980000Y-53640000D03*
X218480000Y-53640000D03*
X220980000Y-53640000D03*
X223480000Y-53640000D03*
X225980000Y-53640000D03*
%TD*%
D14*
%TO.C,D2*%
X142150000Y-74550000D03*
D15*
X144690000Y-74550000D03*
%TD*%
D10*
%TO.C,R21*%
X151930000Y-101155000D03*
D11*
X159550000Y-101155000D03*
%TD*%
D10*
%TO.C,R3*%
X171700000Y-59790000D03*
D11*
X179320000Y-59790000D03*
%TD*%
D29*
%TO.C,Q2*%
X177017000Y-101260000D03*
D30*
X178287000Y-101260000D03*
X179557000Y-101260000D03*
%TD*%
D24*
%TO.C,J3*%
X214220000Y-86030000D03*
D25*
X214220000Y-88570000D03*
X214220000Y-91110000D03*
X214220000Y-93650000D03*
X214220000Y-96190000D03*
X214220000Y-98730000D03*
X214220000Y-101270000D03*
X214220000Y-103810000D03*
%TD*%
D31*
%TO.C,PS1*%
X160460000Y-57060000D03*
D32*
X155460000Y-57060000D03*
X165460000Y-86140000D03*
X150460000Y-86140000D03*
%TD*%
D29*
%TO.C,Q1*%
X164887000Y-101110000D03*
D30*
X166157000Y-101110000D03*
X167427000Y-101110000D03*
%TD*%
D10*
%TO.C,R8*%
X178010000Y-106030000D03*
D11*
X178010000Y-113650000D03*
%TD*%
D12*
%TO.C,H1*%
X112870000Y-55050000D03*
%TD*%
D14*
%TO.C,D9*%
X172920000Y-84680000D03*
D15*
X175460000Y-84680000D03*
%TD*%
D10*
%TO.C,R10*%
X171760000Y-67480000D03*
D11*
X179380000Y-67480000D03*
%TD*%
D10*
%TO.C,R13*%
X171880000Y-71170000D03*
D11*
X179500000Y-71170000D03*
%TD*%
D22*
%TO.C,Display1*%
X213710000Y-60480000D03*
D23*
X216210000Y-60480000D03*
X218710000Y-60480000D03*
X221210000Y-60480000D03*
X223710000Y-60480000D03*
X226210000Y-60480000D03*
X228710000Y-60480000D03*
X231210000Y-60480000D03*
%TD*%
D22*
%TO.C,J2*%
X216790000Y-111870000D03*
D23*
X219290000Y-111870000D03*
X221790000Y-111870000D03*
X224290000Y-111870000D03*
%TD*%
D10*
%TO.C,R15*%
X151930000Y-93975000D03*
D11*
X159550000Y-93975000D03*
%TD*%
D12*
%TO.C,H4*%
X236310000Y-54520000D03*
%TD*%
%TO.C,H3*%
X236640000Y-111530000D03*
%TD*%
D10*
%TO.C,R1*%
X171930000Y-79190000D03*
D11*
X179550000Y-79190000D03*
%TD*%
D10*
%TO.C,R5*%
X148610000Y-102060000D03*
D11*
X148610000Y-94440000D03*
%TD*%
D22*
%TO.C,J10*%
X218910000Y-76890000D03*
D23*
X221410000Y-76890000D03*
X223910000Y-76890000D03*
X226410000Y-76890000D03*
X228910000Y-76890000D03*
X231410000Y-76890000D03*
%TD*%
D33*
%TO.C,C1*%
X172657300Y-91870000D03*
D10*
X176157300Y-91870000D03*
%TD*%
M02*
